<svg width="31" height="30" viewBox="0 0 31 30" fill="none" xmlns="http://www.w3.org/2000/svg">
<path d="M28.0533 14.0534H24.4819C24.2364 14.0534 24.0355 14.2543 24.0355 14.4999C24.0355 18.9284 20.4329 22.5355 15.9999 22.5355C11.5669 22.5355 7.96424 18.9284 7.96424 14.4999C7.96424 10.0713 11.5669 6.46424 15.9999 6.46424C16.2454 6.46424 16.4463 6.26335 16.4463 6.01782V2.44642C16.4463 2.20089 16.2454 2 15.9999 2C9.10708 2 3.5 7.60708 3.5 14.4999C3.5 21.3927 9.10708 26.9997 15.9999 26.9997C22.8927 26.9997 28.4997 21.3927 28.4997 14.4999C28.4997 14.2543 28.2988 14.0534 28.0533 14.0534Z" fill="#48ACFF"/>
<path d="M15.9999 6.46424C16.2454 6.46424 16.4463 6.26335 16.4463 6.01782V2.44642C16.4463 2.20089 16.2454 2 15.9999 2C9.10708 2 3.5 7.60708 3.5 14.4999H7.96424C7.96424 10.0713 11.5669 6.46424 15.9999 6.46424Z" fill="#33D194"/>
<path d="M28.0532 14.0537H24.4818C24.2363 14.0537 24.0354 14.2546 24.0354 14.5001C24.0354 18.9287 20.4327 22.5358 15.9998 22.5358V27C22.8925 27 28.4996 21.3929 28.4996 14.5001C28.4996 14.2546 28.2987 14.0537 28.0532 14.0537Z" fill="#FF97C6"/>
<path d="M28.4911 14.9462C28.7455 7.70076 22.7992 1.75439 15.5537 2.00885V6.47755C20.3349 6.21863 24.2858 10.165 24.0224 14.9462H28.4911Z" fill="#FCD354"/>
</svg>
