<svg width="36" height="30" viewBox="0 0 36 30" fill="none" xmlns="http://www.w3.org/2000/svg">
<path d="M32.1796 19.3099L29.5797 5.38492C29.5584 5.26001 29.4868 5.15441 29.3802 5.08261C29.2782 5.01218 29.149 4.98283 29.0272 5.01005L4.88686 9.51442C4.63116 9.56021 4.46168 9.80981 4.50747 10.0655L7.10735 23.9905C7.12868 24.1154 7.20026 24.221 7.30678 24.2928C7.34786 24.3201 7.3903 24.3429 7.43549 24.3566C7.50779 24.3785 7.58558 24.3824 7.65844 24.3699L31.7943 19.8642C32.05 19.8184 32.2195 19.5688 32.1737 19.3131L32.1796 19.3099Z" fill="#028757"/>
<path d="M29.456 15.0148L28.5889 10.3746C28.5676 10.2497 28.496 10.1441 28.3895 10.0723C28.2875 10.0019 28.1582 9.97257 28.0365 9.99978C26.7598 10.2391 25.5222 9.38993 25.2828 8.11323C25.2325 7.85617 24.9874 7.68805 24.7317 7.73384L9.87624 10.5054C9.75134 10.5267 9.64573 10.5983 9.57394 10.7049C9.50351 10.8069 9.47416 10.9361 9.50137 11.0579C9.61976 11.6761 9.48301 12.3057 9.12814 12.8248C8.77328 13.3438 8.23304 13.6931 7.61483 13.8115C7.48993 13.8328 7.38432 13.9044 7.31252 14.0109C7.2421 14.1129 7.21275 14.2422 7.23996 14.364L8.10704 19.0041C8.12836 19.129 8.19995 19.2346 8.30647 19.3064C8.40847 19.3769 8.53774 19.4062 8.6595 19.379C9.28086 19.2665 9.90734 19.3974 10.4264 19.7522C10.9454 20.1071 11.2947 20.6473 11.4131 21.2655C11.4478 21.4439 11.5786 21.5822 11.7413 21.6316C11.8136 21.6535 11.8868 21.656 11.9642 21.6449L26.8197 18.8734C26.9446 18.852 27.0502 18.7804 27.122 18.6739C27.1938 18.5674 27.2218 18.4427 27.1946 18.3209C26.9566 17.0397 27.7999 15.8053 29.0811 15.5673C29.3368 15.5215 29.5063 15.2719 29.4605 15.0162L29.456 15.0148Z" fill="#00A570"/>
<path d="M29.5394 9.88907H4.98416C4.72337 9.88907 4.51195 10.1005 4.51195 10.3613V24.5278C4.51195 24.7886 4.72337 25 4.98416 25H29.5394C29.8002 25 30.0116 24.7886 30.0116 24.5278V10.3613C30.0116 10.1005 29.8002 9.88907 29.5394 9.88907Z" fill="#33D194"/>
<path d="M27.6506 14.6112C26.3472 14.6112 25.2895 13.5535 25.2895 12.2502C25.2895 11.9904 25.077 11.7779 24.8173 11.7779H9.70633C9.44661 11.7779 9.23411 11.9904 9.23411 12.2502C9.23411 13.5535 8.17635 14.6112 6.87303 14.6112C6.61331 14.6112 6.40081 14.8237 6.40081 15.0835V19.8056C6.40081 20.0653 6.61331 20.2778 6.87303 20.2778C8.17635 20.2778 9.23411 21.3356 9.23411 22.6389C9.23411 22.8986 9.44661 23.1111 9.70633 23.1111H24.8173C25.077 23.1111 25.2895 22.8986 25.2895 22.6389C25.2895 21.3356 26.3472 20.2778 27.6506 20.2778C27.9103 20.2778 28.1228 20.0653 28.1228 19.8056V15.0835C28.1228 14.8237 27.9103 14.6112 27.6506 14.6112Z" fill="#00A570"/>
<path d="M10.6509 18.3747C11.1647 18.3747 11.5812 17.9582 11.5812 17.4444C11.5812 16.9307 11.1647 16.5142 10.6509 16.5142C10.1371 16.5142 9.72063 16.9307 9.72063 17.4444C9.72063 17.9582 10.1371 18.3747 10.6509 18.3747Z" fill="#33D194"/>
<path d="M23.7784 18.3747C24.2922 18.3747 24.7087 17.9582 24.7087 17.4444C24.7087 16.9307 24.2922 16.5142 23.7784 16.5142C23.2647 16.5142 22.8482 16.9307 22.8482 17.4444C22.8482 17.9582 23.2647 18.3747 23.7784 18.3747Z" fill="#33D194"/>
<path d="M19.2972 13.7141H15.2267C15.0095 13.7141 14.8348 13.8888 14.8348 14.106V14.2713C14.8348 14.4885 15.0095 14.6632 15.2267 14.6632H15.732C16.5584 14.6632 17.0731 14.9041 17.262 15.381H15.2314C15.0142 15.381 14.8395 15.5557 14.8395 15.7729C14.8395 15.9902 15.0142 16.1649 15.2314 16.1649H17.3186C17.1864 16.8213 16.5678 17.1801 15.5573 17.1801H15.4487C15.1087 17.1801 14.8348 17.454 14.8348 17.794C14.8348 17.9451 14.8867 18.0868 14.9859 18.2001C15.4864 18.7668 17.0589 20.5565 17.4272 20.9956C17.5264 21.1137 17.6728 21.1798 17.8239 21.1798C18.2678 21.1798 18.5086 20.6604 18.2253 20.3204C17.6067 19.579 16.7331 18.5496 16.242 18.0254C17.5122 17.9074 18.3386 17.2274 18.4897 16.1649H19.2972C19.5144 16.1649 19.6892 15.9902 19.6892 15.7729C19.6892 15.5557 19.5144 15.381 19.2972 15.381H18.4756C18.4142 15.0363 18.2725 14.7388 18.0553 14.4979H19.2925C19.5097 14.4979 19.6844 14.3232 19.6844 14.106C19.6844 13.8888 19.5097 13.7141 19.2925 13.7141H19.2972Z" fill="#33D194"/>
</svg>
