<svg width="28" height="25" viewBox="0 0 28 25" fill="none" xmlns="http://www.w3.org/2000/svg">
<path d="M13.8614 2.53713C14.4183 2.41337 14.8515 1.91832 14.8515 1.2995C14.8515 0.680693 14.2945 0 13.552 0C12.8094 0 12.2525 0.556931 12.2525 1.2995C12.2525 2.04208 12.6856 2.41337 13.2426 2.53713V3.2797H13.7995V2.53713H13.8614Z" fill="#FCD354"/>
<path d="M2.04207 18.0693V25L6.5594 23.8243L5.13613 17.7599L2.04207 18.0693Z" fill="#337FEF"/>
<path d="M21.9678 17.698C21.7822 17.4505 21.5347 17.3886 21.2253 17.5124L17.2649 19.1832C16.646 19.4307 15.9654 19.5545 15.2847 19.5545H12.7475C12.5 19.5545 12.3144 19.3069 12.3144 19.0594C12.3144 18.8738 12.4381 18.75 12.6238 18.6881L15.2228 17.9455C15.5322 17.8837 15.7178 17.5743 15.6559 17.2648C15.5941 17.0173 15.3465 16.8317 15.099 16.8317H11.2005C10.7055 16.8317 10.2104 16.8936 9.71536 17.0792L6.6213 18.1931L7.67328 22.8342L8.60149 22.5866C8.78714 22.5866 9.03466 22.5248 9.22031 22.5248L15.4084 22.2772C16.0272 22.2772 16.646 22.0297 17.203 21.7203L21.8441 18.5644C22.1535 18.3787 22.2154 18.0074 21.9678 17.698Z" fill="#FFCCCC"/>
<path d="M13.7376 13.4901H0C0 13.4901 0.309406 14.3564 1.79455 14.3564H3.52723C3.52723 14.3564 3.77475 16.0891 4.82673 16.0891H22.2154C23.3292 16.0891 23.5149 14.3564 23.5149 14.3564H25.6188C27.104 14.3564 27.4134 13.4901 27.4134 13.4901H13.6757H13.7376Z" fill="#FFB125"/>
<path d="M13.552 2.16584C7.79703 2.16584 3.09406 6.80693 3.09406 12.6238H24.0099C24.0099 6.86881 19.3069 2.16584 13.552 2.16584Z" fill="#33D194"/>
</svg>
