<svg width="35" height="30" viewBox="0 0 35 30" fill="none" xmlns="http://www.w3.org/2000/svg">
<path d="M7 20.072V27L11.5156 25.8247L10.0928 19.7627L7 20.072Z" fill="#337FEF"/>
<path d="M26.856 19.7009C26.6705 19.4535 26.423 19.3916 26.1138 19.5153L22.1549 21.1855C21.5364 21.4329 20.8559 21.5566 20.1755 21.5566H17.6394C17.3919 21.5566 17.2064 21.3092 17.2064 21.0617C17.2064 20.8762 17.3301 20.7525 17.5157 20.6906L20.1136 19.9483C20.4229 19.8865 20.6085 19.5772 20.5466 19.2679C20.4848 19.0205 20.2374 18.8349 19.9899 18.8349H16.0929C15.5981 18.8349 15.1032 18.8968 14.6084 19.0823L11.5155 20.1957L12.5671 24.835L13.495 24.5876C13.6805 24.5876 13.928 24.5257 14.1135 24.5257L20.2992 24.2783C20.9178 24.2783 21.5364 24.0309 22.0931 23.7216L26.7323 20.5669C27.0416 20.3813 27.1035 20.0102 26.856 19.7009Z" fill="#FFCCCC"/>
<path d="M17.0208 3.37068C17.6394 2.81397 18.3817 2.38097 19.1858 2.1954C21.6601 1.57683 24.1962 3.18511 24.6911 5.65938C25.0622 7.32952 24.5673 8.69037 23.3921 9.86565C21.4126 11.8451 19.4332 13.8245 17.5157 15.7421C17.1445 16.1132 16.8971 16.1132 16.5259 15.7421C14.5465 13.7626 12.5671 11.7832 10.5877 9.80379C9.22684 8.44294 8.8557 6.40167 9.65984 4.73153C10.4021 2.93768 12.196 1.88612 14.1754 2.00983C15.1032 2.07169 15.9692 2.44283 16.7115 3.0614C16.7734 3.12325 16.8971 3.18511 17.0208 3.30882V3.37068Z" fill="#ED4957"/>
</svg>
