<svg width="36" height="30" viewBox="0 0 36 30" fill="none" xmlns="http://www.w3.org/2000/svg">
<path d="M12.93 26.6802L11.9968 23.8306L9.05833 24.4083C8.66394 24.4861 8.36398 24.0639 8.56395 23.714L12.8689 16.365L18.0793 19.4201L13.7743 26.7691C13.5688 27.119 13.0522 27.0579 12.93 26.6802Z" fill="#337FEF"/>
<path d="M22.8614 26.6802L23.7946 23.8306L26.7331 24.4083C27.1275 24.4861 27.4275 24.0639 27.2275 23.714L22.9225 16.365L17.7122 19.4201L22.0171 26.7691C22.2226 27.119 22.7392 27.0579 22.8614 26.6802Z" fill="#337FEF"/>
<path d="M18.0073 20.9865C23.2502 20.9865 27.5004 16.7363 27.5004 11.4934C27.5004 6.25046 23.2502 2.00024 18.0073 2.00024C12.7644 2.00024 8.51416 6.25046 8.51416 11.4934C8.51416 16.7363 12.7644 20.9865 18.0073 20.9865Z" fill="#FCD354"/>
<path d="M18.0059 18.6704C21.9695 18.6704 25.1826 15.4573 25.1826 11.4937C25.1826 7.53004 21.9695 4.31689 18.0059 4.31689C14.0423 4.31689 10.8291 7.53004 10.8291 11.4937C10.8291 15.4573 14.0423 18.6704 18.0059 18.6704Z" fill="#FFB125"/>
<path d="M18.1348 7.28274L19.4402 9.34911C19.4624 9.38244 19.4958 9.40466 19.5291 9.41577L21.9676 10.0657C22.0787 10.0935 22.1176 10.2323 22.0454 10.3156L20.4234 12.1432C20.3956 12.1765 20.379 12.2154 20.3845 12.2598L20.5845 14.8206C20.5956 14.9372 20.4734 15.0205 20.3679 14.9761L18.0682 13.9485C18.0293 13.9318 17.9849 13.9318 17.9404 13.9485L15.6407 14.9761C15.5352 15.0261 15.413 14.9372 15.4241 14.8206L15.6241 12.2598C15.6241 12.2154 15.613 12.1765 15.5852 12.1432L13.9632 10.3156C13.8854 10.2323 13.9299 10.0935 14.041 10.0657L16.4795 9.41577C16.5184 9.40466 16.5517 9.38244 16.5684 9.34911L17.8738 7.28274C17.9349 7.18831 18.0737 7.18831 18.1348 7.28274Z" fill="#FCD354"/>
</svg>
