<svg width="36" height="30" viewBox="0 0 36 30" fill="none" xmlns="http://www.w3.org/2000/svg">
<path d="M4.54847 12.7811L9.69589 11.4068L3.98376 7.12891L1.5 7.79357L4.54847 12.7811Z" fill="#E58217"/>
<path d="M21.8997 8.08346L13.164 5L9.50586 5.98451L15.3479 9.89255L21.8997 8.08346Z" fill="#48ACFF"/>
<path d="M33.1095 7.74863C32.3149 7.58871 30.6807 7.38382 29.4463 7.08397C28.062 6.75413 27.6422 6.59921 26.3229 6.84409L3.71921 12.921C3.28443 13.036 3.01956 13.4508 3.12451 13.8456V13.8706C3.18947 14.0805 3.3444 14.2554 3.55929 14.3403L8.26693 15.9995C10.6158 16.8291 13.1595 16.919 15.5633 16.2644L33.5393 11.3618C34.3838 10.962 34.8136 10.0125 34.5638 9.11295C34.3739 8.4233 33.8141 7.89356 33.1145 7.74863H33.1095Z" fill="#FCD354"/>
<path d="M16.8272 24.1805L12.2695 25.0001L16.8023 15.17L24.3035 13.0161L16.8272 24.1805Z" fill="#48ACFF"/>
<path d="M5.07322 14.8901L9.13618 13.7957L6.28261 19.128L4.47852 19.3829L5.07322 14.8901Z" fill="#FFB125"/>
<path d="M34.149 8.35827C33.8792 8.05342 33.5193 7.83353 33.1095 7.74858C32.5948 7.64363 31.7252 7.51869 30.8457 7.36377L29.1915 7.80855C28.6468 7.95347 28.3069 8.46822 28.4369 8.95297C28.5668 9.43773 29.1165 9.71259 29.6613 9.56267L34.149 8.35827Z" fill="#1C54C4"/>
<path d="M25.5824 10.5825C25.6674 10.8924 25.4825 11.2072 25.1726 11.2922C24.8678 11.3721 24.5479 11.1872 24.463 10.8824L24.2531 10.1077C24.1681 9.7979 24.353 9.48306 24.6629 9.39811C24.9727 9.31315 25.2876 9.49806 25.3725 9.8079L25.5824 10.5825Z" fill="#1C54C4"/>
<path d="M23.4584 11.1518C23.5434 11.4617 23.3584 11.7765 23.0486 11.8615C22.7438 11.9415 22.4239 11.7565 22.339 11.4517L22.1291 10.6771C22.0441 10.3672 22.229 10.0524 22.5389 9.96744C22.8487 9.88248 23.1635 10.0674 23.2485 10.3772L23.4584 11.1518Z" fill="#1C54C4"/>
<path d="M21.3305 11.7266C21.4154 12.0364 21.2305 12.3512 20.9207 12.4362C20.6158 12.5162 20.296 12.3313 20.211 12.0264L20.0011 11.2518C19.9162 10.9419 20.1011 10.6271 20.4109 10.5421C20.7208 10.4572 21.0356 10.6421 21.1206 10.9519L21.3305 11.7266Z" fill="#1C54C4"/>
<path d="M19.2064 12.2961C19.2914 12.606 19.1065 12.9208 18.7966 13.0058C18.4918 13.0857 18.172 12.9008 18.087 12.596L17.8771 11.8214C17.7922 11.5115 17.9771 11.1967 18.2869 11.1117C18.5967 11.0318 18.9116 11.2117 18.9965 11.5215L19.2064 12.2961Z" fill="#1C54C4"/>
<path d="M17.0824 12.8662C17.1674 13.176 16.9825 13.4909 16.6726 13.5758C16.3678 13.6558 16.0479 13.4709 15.963 13.1661L15.7531 12.3914C15.6681 12.0816 15.853 11.7668 16.1629 11.6818C16.4727 11.5968 16.7876 11.7817 16.8725 12.0916L17.0824 12.8662Z" fill="#1C54C4"/>
<path d="M14.9533 13.4407C15.0382 13.7505 14.8533 14.0654 14.5435 14.1503C14.2436 14.2303 13.9138 14.0404 13.8338 13.7405L13.6239 12.9659C13.539 12.6561 13.7239 12.3412 14.0337 12.2563C14.3436 12.1713 14.6584 12.3562 14.7434 12.6661L14.9533 13.4407Z" fill="#1C54C4"/>
<path d="M12.8295 14.0105C12.9144 14.3203 12.7295 14.6352 12.4197 14.7201C12.1148 14.8001 11.795 14.6152 11.7101 14.3103L11.5002 13.5357C11.4152 13.2259 11.6001 12.911 11.91 12.8261C12.2198 12.7411 12.5346 12.926 12.6196 13.2359L12.8295 14.0105Z" fill="#1C54C4"/>
</svg>
