<svg width="36" height="30" viewBox="0 0 36 30" fill="none" xmlns="http://www.w3.org/2000/svg">
<path d="M13.671 6.20174H8.2118C8.05837 6.16978 7.89856 6.20813 7.7771 6.3232L4.38904 9.71126C4.20365 9.89665 4.20365 10.1907 4.38904 10.3761L5.40546 11.3925C5.59084 11.5779 5.8849 11.5779 6.07028 11.3925L8.88941 8.57338H13.6774C13.9523 8.57338 14.1761 8.34964 14.1761 8.07476V6.70036C14.1761 6.42548 13.9523 6.20174 13.6774 6.20174H13.671Z" fill="#00A570"/>
<path d="M29.1198 17.2674L27.601 18.7862C27.3689 19.0183 27.3689 19.3948 27.601 19.6269L31.3935 23.4194C31.6257 23.6516 32.0021 23.6516 32.2343 23.4194L33.7531 21.9006C33.9852 21.6684 33.9852 21.292 33.7531 21.0598L29.9606 17.2674C29.7284 17.0352 29.352 17.0352 29.1198 17.2674Z" fill="#337FEF"/>
<path d="M18.5039 15.5349L21.1057 18.1111C21.1696 18.1495 21.2079 18.2198 21.2079 18.2965V20.0161C21.2079 20.1375 21.1057 20.2398 20.9842 20.2398H20.3066C20.1851 20.2398 20.0829 20.1375 20.0829 20.0161V18.68L17.7048 16.3276C17.6153 16.2381 17.6153 16.0847 17.7048 15.9952L18.1651 15.5349C18.2546 15.4454 18.408 15.4454 18.4975 15.5349H18.5039Z" fill="#1C54C4"/>
<path opacity="0.5" d="M16.8484 17.6571L17.737 16.7686V18.5457L16.8484 17.6571Z" fill="#FC9E97"/>
<path opacity="0.5" d="M26.0729 17.3889L24.6026 18.8592L20.179 14.4355H20.0703L21.5917 12.9141L21.6685 12.9844L22.3525 13.6684L26.0729 17.3889Z" fill="#FC9E97"/>
<path d="M30.9499 15.8674L22.4542 7.37164V6.27212C22.4542 5.56894 21.8852 5 21.1821 5H14.2973C13.5941 5 13.0251 5.56894 13.0251 6.27212V13.1569C13.0251 13.8601 13.5941 14.429 14.2973 14.429H15.4543V16.7623C15.4543 16.7623 15.4607 18.7952 15.4543 19.0956C15.4479 19.4216 15.563 19.7541 15.8187 20.0034L20.3766 24.5613C20.8624 25.0471 21.6423 25.0471 22.1282 24.5613L26.2258 20.4636L26.2897 20.5276C26.7884 21.0262 27.5874 21.0262 28.086 20.5276L30.9563 17.6573C31.4549 17.1587 31.4549 16.3596 30.9563 15.861L30.9499 15.8674ZM15.4543 11.7378C15.4096 11.6483 15.384 11.546 15.384 11.4437V7.99172C15.384 7.64013 15.6653 7.35247 16.0233 7.35247H19.4752C19.8268 7.35247 20.1145 7.63374 20.1145 7.99172V11.4437C20.1145 11.4437 20.1145 11.4949 20.1145 11.514C20.1081 11.578 20.0889 11.6355 20.0698 11.693C19.9739 11.9168 19.7501 12.0766 19.488 12.0766H16.036C15.7931 12.0766 15.5758 11.9359 15.4735 11.7378H15.4543ZM21.3227 22.1385L17.7365 18.5522V16.7687L20.0698 14.4354H20.172L24.5957 18.8591L21.3163 22.1385H21.3227Z" fill="#FFB125"/>
<path d="M8.31419 19.3516L5.53342 13.5472C5.53342 13.5472 5.53342 13.5408 5.53342 13.5344C5.22019 12.844 4.23573 12.844 3.92249 13.5344C3.92249 13.5344 3.92249 13.5408 3.92249 13.5472L1.13533 19.3516C0.0422045 21.8128 1.99194 24.7342 4.72157 24.7342C7.45759 24.7342 9.40732 21.8064 8.3078 19.3516H8.31419Z" fill="#337FEF"/>
</svg>
