<svg width="35" height="30" viewBox="0 0 35 30" fill="none" xmlns="http://www.w3.org/2000/svg">
<path d="M17.8176 28.2228C14.0864 28.2228 10.3592 28.2228 6.62793 28.2228C5.64904 28.2228 5.36643 27.8746 5.55484 26.8998C6.53373 21.8579 7.52082 16.816 8.49561 11.7741C8.59391 11.2662 8.88881 11.041 9.3844 11.0328C10.3182 11.0205 11.248 11 12.1818 11C16.7691 11.0041 21.3564 11.0164 25.9437 11.0287C26.9308 11.0287 26.9881 11.086 27.1806 12.069C28.1595 17.0372 29.1384 22.0013 30.1173 26.9695C30.2852 27.8214 29.9739 28.2187 29.1179 28.2187C25.3498 28.2228 21.5858 28.2187 17.8176 28.2187V28.2228Z" fill="#FCD354"/>
<path d="M24.4791 15.8192C24.459 15.9762 24.4308 16.1292 24.3905 16.2822C24.0845 17.446 23.3275 18.4406 22.3208 19.0848C21.6403 19.5197 20.9074 19.6808 20.1182 19.3385C19.792 19.7533 19.4618 20.168 19.1276 20.5948C18.7531 20.168 18.3907 19.7533 18.0283 19.3385C18.2901 19.0164 18.5478 18.7103 18.7974 18.3963C18.8296 18.356 18.8417 18.2795 18.8256 18.2312C18.6605 17.7359 18.6404 17.2325 18.7572 16.7252C18.9625 15.8192 19.4538 15.0823 20.1142 14.4501C20.6497 13.9387 21.2577 13.5521 21.9866 13.375C22.9731 13.1334 23.8469 13.528 24.2737 14.4219C24.4831 14.8608 24.5355 15.344 24.4791 15.8192Z" fill="#1C54C4"/>
<path d="M10.5182 15.3235C10.6109 14.9692 11.1223 14.8604 11.3961 15.1947C11.843 15.7463 12.29 16.298 12.737 16.8496C12.8417 16.9785 12.9464 17.1154 13.0591 17.2362C13.1477 17.3328 13.2604 17.3771 13.3933 17.3288C13.5222 17.2845 13.6148 17.1879 13.6108 17.059C13.6108 16.9543 13.5624 16.8376 13.498 16.753C12.9464 16.0604 12.3826 15.3718 11.8229 14.6833C11.7182 14.5584 11.6779 14.4215 11.7424 14.2645C11.8752 13.9544 12.2618 13.8981 12.4752 14.1558C12.6967 14.4215 12.9141 14.6913 13.1316 14.9611C13.4698 15.3799 13.8081 15.7946 14.1463 16.2094C14.2953 16.3906 14.4886 16.4148 14.6658 16.2859C14.8671 16.1409 14.8913 15.9114 14.7221 15.702C14.1946 15.0497 13.6671 14.4014 13.1396 13.7491C12.9826 13.5558 12.9866 13.3625 13.1477 13.1853C13.3772 12.9317 13.647 12.9397 13.8644 13.2014C14.5893 14.0672 15.3181 14.9289 16.0308 15.8067C16.2281 16.0483 16.4134 16.3141 16.5342 16.596C16.7959 17.208 16.7596 17.7999 16.3087 18.3315C16.2966 18.3436 16.2926 18.3597 16.2805 18.3758C16.51 18.6415 16.7395 18.9033 16.965 19.165C18.5153 20.9448 20.0656 22.7286 21.6199 24.5084C21.8011 24.7138 21.8977 24.9433 21.8816 25.2171C21.8575 25.5836 21.5635 25.9581 21.1971 26.0748C20.8427 26.1876 20.5206 26.0748 20.2669 25.7446C18.7448 23.7796 17.2227 21.8146 15.7006 19.8536C15.5436 19.6522 15.3906 19.4509 15.2335 19.2496C15.1973 19.2657 15.1731 19.2777 15.149 19.2898C14.6174 19.5999 14.0899 19.5717 13.5705 19.2616C13.2403 19.0643 12.9705 18.8026 12.737 18.5006C12.0484 17.6107 11.3598 16.7208 10.6672 15.8349C10.6068 15.7584 10.5464 15.6819 10.5223 15.5853C10.4941 15.4806 10.4941 15.392 10.5142 15.3114L10.5182 15.3235Z" fill="#337FEF"/>
<path d="M16.2233 21.5889C16.5937 22.064 16.9602 22.5271 17.3306 22.9982C17.0971 23.2962 16.8676 23.5901 16.634 23.8841C16.1589 24.4881 15.6837 25.0961 15.2045 25.7001C14.9508 26.0223 14.6247 26.1914 14.2059 26.0948C13.6704 25.9699 13.3804 25.4384 13.5737 24.923C13.6261 24.7861 13.7026 24.6532 13.7952 24.5404C14.5804 23.5821 15.3696 22.6278 16.1589 21.6694C16.179 21.6452 16.1991 21.6211 16.2273 21.5889H16.2233Z" fill="#1C54C4"/>
<path d="M13.05 8.10266C13.1196 7.52925 13.1524 6.94765 13.2712 6.38653C13.5865 4.92024 14.4098 3.82666 15.8679 3.36384C17.7561 2.76585 19.6237 2.8109 21.1597 4.21576C21.7003 4.71135 22.0894 5.48545 22.3065 6.20222C22.544 6.98861 22.5317 7.85282 22.5645 8.68836C22.5891 9.30273 22.2491 9.63449 21.7126 9.64268C21.1801 9.65497 20.8566 9.3314 20.7951 8.74161C20.7255 8.09447 20.7009 7.43915 20.574 6.8043C20.3528 5.68615 19.636 5.05949 18.5015 4.93252C18.1697 4.89566 17.8298 4.87518 17.498 4.89976C15.8515 5.01444 15.0487 5.83769 14.9463 7.49239C14.9218 7.91835 14.9095 8.34841 14.8562 8.77437C14.7825 9.35188 14.4057 9.67135 13.8937 9.65087C13.3695 9.6263 13.0787 9.28225 13.0664 8.66379C13.0664 8.47948 13.0664 8.29107 13.0664 8.10676H13.0459L13.05 8.10266Z" fill="#FFB125"/>
</svg>
