<svg width="535" height="386" viewBox="0 0 535 386" fill="none" xmlns="http://www.w3.org/2000/svg">
<g filter="url(#filter0_d_2941_9771)">
<path d="M465.795 50.9473H69.1905C58.5919 50.9473 50 59.5481 50 70.1578V316.052C50 326.662 58.5919 335.263 69.1905 335.263H465.795C476.394 335.263 484.985 326.662 484.985 316.052V70.1578C484.985 59.5481 476.394 50.9473 465.795 50.9473Z" fill="white"/>
</g>
<g filter="url(#filter1_d_2941_9771)">
<path d="M165.766 264.966C165.766 208.727 211.318 163.127 267.499 163.127C323.679 163.127 369.231 208.727 369.231 264.966H165.766Z" fill="white"/>
</g>
<path d="M320.878 138.614C346.228 148.474 368.178 165.14 384.491 186.37" stroke="#4CE4AA" stroke-width="10" stroke-miterlimit="10" stroke-linecap="round"/>
<path d="M228.29 133.917C240.773 130.479 253.915 128.646 267.499 128.646C281.083 128.646 294.249 130.491 306.756 133.929" stroke="#FFC10D" stroke-width="10" stroke-miterlimit="10" stroke-linecap="round"/>
<path d="M150.506 186.358C166.831 165.116 188.782 148.45 214.143 138.602" stroke="#FF900D" stroke-width="10" stroke-miterlimit="10" stroke-linecap="round"/>
<path d="M120.525 263.767C122.512 240.081 130.076 217.976 141.925 198.794" stroke="#F15223" stroke-width="10" stroke-miterlimit="10" stroke-linecap="round"/>
<path d="M393.156 198.95C404.946 218.096 412.486 240.129 414.46 263.768" stroke="#1B998B" stroke-width="10" stroke-miterlimit="10" stroke-linecap="round"/>
<circle cx="398.549" cy="210.549" r="7.04861" fill="white" stroke="#0070E0" stroke-width="3"/>
<path d="M223.941 264.186L242.617 231.818H221.981V224.986H250.541V231.818L231.809 264.186H223.941ZM267.05 264.914C264.53 264.914 262.252 264.307 260.218 263.094C258.183 261.862 256.568 260.228 255.374 258.194C254.198 256.159 253.61 253.928 253.61 251.502H260.442C260.442 252.715 260.74 253.826 261.338 254.834C261.935 255.823 262.728 256.616 263.718 257.214C264.726 257.792 265.836 258.082 267.05 258.082C268.263 258.082 269.364 257.792 270.354 257.214C271.343 256.616 272.136 255.823 272.734 254.834C273.331 253.826 273.63 252.715 273.63 251.502C273.63 250.288 273.368 249.178 272.846 248.17C272.342 247.143 271.511 246.331 270.354 245.734C269.215 245.118 267.703 244.81 265.818 244.81H255.738L259.882 224.986H279.146V231.818H265.426L264.166 237.978L266.938 238.006C269.588 238.099 271.931 238.743 273.966 239.938C276 241.132 277.587 242.738 278.726 244.754C279.883 246.751 280.462 249 280.462 251.502C280.462 253.331 280.116 255.058 279.426 256.682C278.735 258.306 277.774 259.734 276.542 260.966C275.31 262.198 273.882 263.168 272.258 263.878C270.652 264.568 268.916 264.914 267.05 264.914ZM299.051 264.914C296.773 264.914 294.701 264.391 292.835 263.346C290.968 262.282 289.353 260.816 287.991 258.95C286.647 257.083 285.611 254.927 284.883 252.482C284.155 250.018 283.791 247.386 283.791 244.586C283.791 241.786 284.155 239.163 284.883 236.718C285.611 234.254 286.647 232.088 287.991 230.222C289.353 228.355 290.968 226.899 292.835 225.854C294.701 224.79 296.773 224.258 299.051 224.258C301.328 224.258 303.4 224.79 305.267 225.854C307.133 226.899 308.729 228.355 310.055 230.222C311.399 232.088 312.435 234.254 313.163 236.718C313.909 239.163 314.283 241.786 314.283 244.586C314.283 247.386 313.909 250.018 313.163 252.482C312.435 254.927 311.399 257.083 310.055 258.95C308.729 260.816 307.133 262.282 305.267 263.346C303.4 264.391 301.328 264.914 299.051 264.914ZM299.051 258.082C301.048 258.082 302.7 257.447 304.007 256.178C305.313 254.908 306.284 253.247 306.919 251.194C307.553 249.14 307.871 246.938 307.871 244.586C307.871 242.103 307.535 239.844 306.863 237.81C306.191 235.756 305.201 234.123 303.895 232.91C302.588 231.696 300.973 231.09 299.051 231.09C297.539 231.09 296.223 231.463 295.103 232.21C294.001 232.938 293.087 233.936 292.359 235.206C291.631 236.475 291.089 237.922 290.735 239.546C290.38 241.151 290.203 242.831 290.203 244.586C290.203 246.919 290.52 249.122 291.155 251.194C291.808 253.247 292.788 254.908 294.095 256.178C295.42 257.447 297.072 258.082 299.051 258.082Z" fill="#0070E0"/>
<path d="M233.086 210.186V199.686H239.603V201.246H234.646V203.781H238.636V205.341H234.646V208.626H239.603V210.186H233.086ZM240.535 210.186L243.28 206.421L240.55 202.671H242.477L244.24 205.086L246.01 202.671H247.93L245.207 206.421L247.952 210.186H246.025L244.24 207.741L242.462 210.186H240.535ZM253.657 208.056L255.052 208.813C254.712 209.288 254.279 209.668 253.754 209.953C253.234 210.238 252.669 210.381 252.059 210.381C251.369 210.381 250.739 210.203 250.169 209.848C249.604 209.493 249.152 209.018 248.812 208.423C248.477 207.823 248.309 207.161 248.309 206.436C248.309 205.886 248.407 205.373 248.602 204.898C248.797 204.418 249.064 203.998 249.404 203.638C249.749 203.273 250.149 202.988 250.604 202.783C251.059 202.578 251.544 202.476 252.059 202.476C252.669 202.476 253.234 202.618 253.754 202.903C254.279 203.188 254.712 203.571 255.052 204.051L253.657 204.808C253.447 204.558 253.202 204.368 252.922 204.238C252.642 204.103 252.354 204.036 252.059 204.036C251.649 204.036 251.277 204.148 250.942 204.373C250.612 204.593 250.349 204.886 250.154 205.251C249.964 205.611 249.869 206.006 249.869 206.436C249.869 206.861 249.967 207.256 250.162 207.621C250.357 207.981 250.619 208.271 250.949 208.491C251.284 208.711 251.654 208.821 252.059 208.821C252.369 208.821 252.664 208.751 252.944 208.611C253.224 208.471 253.462 208.286 253.657 208.056ZM259.515 210.381C258.825 210.381 258.195 210.203 257.625 209.848C257.06 209.493 256.608 209.018 256.268 208.423C255.933 207.823 255.765 207.161 255.765 206.436C255.765 205.886 255.863 205.373 256.058 204.898C256.253 204.418 256.52 203.998 256.86 203.638C257.205 203.273 257.605 202.988 258.06 202.783C258.515 202.578 259 202.476 259.515 202.476C260.09 202.476 260.618 202.596 261.098 202.836C261.578 203.071 261.988 203.398 262.328 203.818C262.668 204.233 262.918 204.713 263.078 205.258C263.238 205.798 263.285 206.373 263.22 206.983H257.438C257.503 207.328 257.628 207.641 257.813 207.921C258.003 208.196 258.243 208.413 258.533 208.573C258.828 208.733 259.155 208.816 259.515 208.821C259.895 208.821 260.24 208.726 260.55 208.536C260.865 208.346 261.123 208.083 261.323 207.748L262.905 208.116C262.605 208.781 262.153 209.326 261.548 209.751C260.943 210.171 260.265 210.381 259.515 210.381ZM257.385 205.791H261.645C261.595 205.431 261.468 205.106 261.263 204.816C261.063 204.521 260.81 204.288 260.505 204.118C260.205 203.943 259.875 203.856 259.515 203.856C259.16 203.856 258.83 203.941 258.525 204.111C258.225 204.281 257.975 204.513 257.775 204.808C257.58 205.098 257.45 205.426 257.385 205.791ZM264.36 210.186V198.936H265.92V210.186H264.36ZM267.714 210.186V198.936H269.274V210.186H267.714ZM274.266 210.381C273.576 210.381 272.946 210.203 272.376 209.848C271.811 209.493 271.359 209.018 271.019 208.423C270.684 207.823 270.516 207.161 270.516 206.436C270.516 205.886 270.614 205.373 270.809 204.898C271.004 204.418 271.271 203.998 271.611 203.638C271.956 203.273 272.356 202.988 272.811 202.783C273.266 202.578 273.751 202.476 274.266 202.476C274.841 202.476 275.369 202.596 275.849 202.836C276.329 203.071 276.739 203.398 277.079 203.818C277.419 204.233 277.669 204.713 277.829 205.258C277.989 205.798 278.036 206.373 277.971 206.983H272.189C272.254 207.328 272.379 207.641 272.564 207.921C272.754 208.196 272.994 208.413 273.284 208.573C273.579 208.733 273.906 208.816 274.266 208.821C274.646 208.821 274.991 208.726 275.301 208.536C275.616 208.346 275.874 208.083 276.074 207.748L277.656 208.116C277.356 208.781 276.904 209.326 276.299 209.751C275.694 210.171 275.016 210.381 274.266 210.381ZM272.136 205.791H276.396C276.346 205.431 276.219 205.106 276.014 204.816C275.814 204.521 275.561 204.288 275.256 204.118C274.956 203.943 274.626 203.856 274.266 203.856C273.911 203.856 273.581 203.941 273.276 204.111C272.976 204.281 272.726 204.513 272.526 204.808C272.331 205.098 272.201 205.426 272.136 205.791ZM285.963 205.483V210.186H284.403V205.866C284.403 205.531 284.321 205.226 284.156 204.951C283.996 204.676 283.778 204.458 283.503 204.298C283.233 204.133 282.928 204.051 282.588 204.051C282.258 204.051 281.956 204.133 281.681 204.298C281.406 204.458 281.186 204.676 281.021 204.951C280.856 205.226 280.773 205.531 280.773 205.866V210.186H279.213V202.686H280.773V203.481C281.033 203.171 281.353 202.926 281.733 202.746C282.113 202.566 282.523 202.476 282.963 202.476C283.518 202.476 284.023 202.611 284.478 202.881C284.933 203.151 285.293 203.513 285.558 203.968C285.828 204.423 285.963 204.928 285.963 205.483ZM292.212 208.056L293.607 208.813C293.267 209.288 292.834 209.668 292.309 209.953C291.789 210.238 291.224 210.381 290.614 210.381C289.924 210.381 289.294 210.203 288.724 209.848C288.159 209.493 287.707 209.018 287.367 208.423C287.032 207.823 286.864 207.161 286.864 206.436C286.864 205.886 286.962 205.373 287.157 204.898C287.352 204.418 287.619 203.998 287.959 203.638C288.304 203.273 288.704 202.988 289.159 202.783C289.614 202.578 290.099 202.476 290.614 202.476C291.224 202.476 291.789 202.618 292.309 202.903C292.834 203.188 293.267 203.571 293.607 204.051L292.212 204.808C292.002 204.558 291.757 204.368 291.477 204.238C291.197 204.103 290.909 204.036 290.614 204.036C290.204 204.036 289.832 204.148 289.497 204.373C289.167 204.593 288.904 204.886 288.709 205.251C288.519 205.611 288.424 206.006 288.424 206.436C288.424 206.861 288.522 207.256 288.717 207.621C288.912 207.981 289.174 208.271 289.504 208.491C289.839 208.711 290.209 208.821 290.614 208.821C290.924 208.821 291.219 208.751 291.499 208.611C291.779 208.471 292.017 208.286 292.212 208.056ZM298.07 210.381C297.38 210.381 296.75 210.203 296.18 209.848C295.615 209.493 295.163 209.018 294.823 208.423C294.488 207.823 294.32 207.161 294.32 206.436C294.32 205.886 294.418 205.373 294.613 204.898C294.808 204.418 295.075 203.998 295.415 203.638C295.76 203.273 296.16 202.988 296.615 202.783C297.07 202.578 297.555 202.476 298.07 202.476C298.645 202.476 299.173 202.596 299.653 202.836C300.133 203.071 300.543 203.398 300.883 203.818C301.223 204.233 301.473 204.713 301.633 205.258C301.793 205.798 301.84 206.373 301.775 206.983H295.993C296.058 207.328 296.183 207.641 296.368 207.921C296.558 208.196 296.798 208.413 297.088 208.573C297.383 208.733 297.71 208.816 298.07 208.821C298.45 208.821 298.795 208.726 299.105 208.536C299.42 208.346 299.678 208.083 299.878 207.748L301.46 208.116C301.16 208.781 300.708 209.326 300.103 209.751C299.498 210.171 298.82 210.381 298.07 210.381ZM295.94 205.791H300.2C300.15 205.431 300.023 205.106 299.818 204.816C299.618 204.521 299.365 204.288 299.06 204.118C298.76 203.943 298.43 203.856 298.07 203.856C297.715 203.856 297.385 203.941 297.08 204.111C296.78 204.281 296.53 204.513 296.33 204.808C296.135 205.098 296.005 205.426 295.94 205.791Z" fill="#383A3E"/>
<path d="M163.002 83.3675C162.339 83.3675 161.716 83.2369 161.133 82.9755C160.55 82.7095 160.036 82.3455 159.593 81.8835C159.154 81.4169 158.809 80.8755 158.557 80.2595C158.31 79.6435 158.186 78.9855 158.186 78.2855C158.186 77.5855 158.31 76.9275 158.557 76.3115C158.809 75.6955 159.154 75.1565 159.593 74.6945C160.036 74.2279 160.55 73.8639 161.133 73.6025C161.716 73.3365 162.339 73.2035 163.002 73.2035C163.795 73.2035 164.526 73.3879 165.193 73.7565C165.86 74.1252 166.413 74.6152 166.852 75.2265L165.557 75.9195C165.254 75.5369 164.878 75.2312 164.43 75.0025C163.982 74.7739 163.506 74.6595 163.002 74.6595C162.535 74.6595 162.099 74.7552 161.693 74.9465C161.287 75.1379 160.93 75.3992 160.622 75.7305C160.314 76.0619 160.074 76.4469 159.901 76.8855C159.728 77.3242 159.642 77.7909 159.642 78.2855C159.642 78.7849 159.728 79.2539 159.901 79.6925C160.074 80.1265 160.314 80.5115 160.622 80.8475C160.935 81.1789 161.294 81.4402 161.7 81.6315C162.106 81.8182 162.54 81.9115 163.002 81.9115C163.515 81.9115 163.994 81.7972 164.437 81.5685C164.885 81.3352 165.258 81.0272 165.557 80.6445L166.852 81.3515C166.413 81.9629 165.86 82.4529 165.193 82.8215C164.526 83.1855 163.795 83.3675 163.002 83.3675ZM174.514 78.7965V83.1855H173.058V79.1535C173.058 78.8409 172.981 78.5562 172.827 78.2995C172.678 78.0429 172.475 77.8399 172.218 77.6905C171.966 77.5365 171.681 77.4595 171.364 77.4595C171.056 77.4595 170.774 77.5365 170.517 77.6905C170.26 77.8399 170.055 78.0429 169.901 78.2995C169.747 78.5562 169.67 78.8409 169.67 79.1535V83.1855H168.214V72.6855H169.67V76.9275C169.913 76.6382 170.211 76.4095 170.566 76.2415C170.921 76.0735 171.303 75.9895 171.714 75.9895C172.232 75.9895 172.703 76.1155 173.128 76.3675C173.553 76.6195 173.889 76.9579 174.136 77.3825C174.388 77.8072 174.514 78.2785 174.514 78.7965ZM178.855 83.3675C178.211 83.3675 177.623 83.2019 177.091 82.8705C176.563 82.5392 176.141 82.0959 175.824 81.5405C175.511 80.9805 175.355 80.3622 175.355 79.6855C175.355 79.1722 175.446 78.6939 175.628 78.2505C175.81 77.8025 176.059 77.4105 176.377 77.0745C176.699 76.7339 177.072 76.4679 177.497 76.2765C177.921 76.0852 178.374 75.9895 178.855 75.9895C179.391 75.9895 179.884 76.1015 180.332 76.3255C180.78 76.5449 181.162 76.8505 181.48 77.2425C181.797 77.6299 182.03 78.0779 182.18 78.5865C182.329 79.0905 182.373 79.6272 182.313 80.1965H176.916C176.976 80.5185 177.093 80.8102 177.266 81.0715C177.443 81.3282 177.667 81.5312 177.938 81.6805C178.213 81.8299 178.519 81.9069 178.855 81.9115C179.209 81.9115 179.531 81.8229 179.821 81.6455C180.115 81.4682 180.355 81.2232 180.542 80.9105L182.019 81.2535C181.739 81.8742 181.316 82.3829 180.752 82.7795C180.187 83.1715 179.555 83.3675 178.855 83.3675ZM176.867 79.0835H180.843C180.796 78.7475 180.677 78.4442 180.486 78.1735C180.299 77.8982 180.063 77.6812 179.779 77.5225C179.499 77.3592 179.191 77.2775 178.855 77.2775C178.523 77.2775 178.215 77.3569 177.931 77.5155C177.651 77.6742 177.417 77.8912 177.231 78.1665C177.049 78.4372 176.927 78.7429 176.867 79.0835ZM188.029 81.1975L189.331 81.9045C189.014 82.3479 188.61 82.7025 188.12 82.9685C187.635 83.2345 187.107 83.3675 186.538 83.3675C185.894 83.3675 185.306 83.2019 184.774 82.8705C184.247 82.5392 183.824 82.0959 183.507 81.5405C183.194 80.9805 183.038 80.3622 183.038 79.6855C183.038 79.1722 183.129 78.6939 183.311 78.2505C183.493 77.8025 183.743 77.4105 184.06 77.0745C184.382 76.7339 184.755 76.4679 185.18 76.2765C185.605 76.0852 186.057 75.9895 186.538 75.9895C187.107 75.9895 187.635 76.1225 188.12 76.3885C188.61 76.6545 189.014 77.0115 189.331 77.4595L188.029 78.1665C187.833 77.9332 187.604 77.7559 187.343 77.6345C187.082 77.5085 186.813 77.4455 186.538 77.4455C186.155 77.4455 185.808 77.5505 185.495 77.7605C185.187 77.9659 184.942 78.2389 184.76 78.5795C184.583 78.9155 184.494 79.2842 184.494 79.6855C184.494 80.0822 184.585 80.4509 184.767 80.7915C184.949 81.1275 185.194 81.3982 185.502 81.6035C185.815 81.8089 186.16 81.9115 186.538 81.9115C186.827 81.9115 187.103 81.8462 187.364 81.7155C187.625 81.5849 187.847 81.4122 188.029 81.1975ZM196.402 83.1855H194.722L193 80.2175L191.873 81.5615V83.1855H190.417V72.6855H191.873V79.3005L194.477 76.1855H196.381L193.994 79.0345L196.402 83.1855ZM197.513 76.1855H198.969V83.1855H197.513V76.1855ZM198.255 75.1705C198.031 75.1705 197.844 75.0982 197.695 74.9535C197.546 74.8089 197.471 74.6269 197.471 74.4075C197.471 74.1929 197.546 74.0132 197.695 73.8685C197.844 73.7192 198.029 73.6445 198.248 73.6445C198.463 73.6445 198.645 73.7192 198.794 73.8685C198.943 74.0132 199.018 74.1929 199.018 74.4075C199.018 74.6269 198.943 74.8089 198.794 74.9535C198.649 75.0982 198.47 75.1705 198.255 75.1705ZM206.889 78.7965V83.1855H205.433V79.1535C205.433 78.8409 205.356 78.5562 205.202 78.2995C205.053 78.0429 204.85 77.8399 204.593 77.6905C204.341 77.5365 204.056 77.4595 203.739 77.4595C203.431 77.4595 203.149 77.5365 202.892 77.6905C202.635 77.8399 202.43 78.0429 202.276 78.2995C202.122 78.5562 202.045 78.8409 202.045 79.1535V83.1855H200.589V76.1855H202.045V76.9275C202.288 76.6382 202.586 76.4095 202.941 76.2415C203.296 76.0735 203.678 75.9895 204.089 75.9895C204.607 75.9895 205.078 76.1155 205.503 76.3675C205.928 76.6195 206.264 76.9579 206.511 77.3825C206.763 77.8072 206.889 78.2785 206.889 78.7965ZM213.477 76.1855H214.933V83.3675C214.933 83.8482 214.83 84.2915 214.625 84.6975C214.424 85.1035 214.151 85.4535 213.806 85.7475C213.46 86.0462 213.064 86.2772 212.616 86.4405C212.172 86.6039 211.708 86.6855 211.223 86.6855C210.733 86.6855 210.261 86.5805 209.809 86.3705C209.356 86.1652 208.957 85.8852 208.612 85.5305C208.271 85.1759 208.017 84.7745 207.849 84.3265L209.186 83.7245C209.279 84.0139 209.428 84.2705 209.634 84.4945C209.844 84.7185 210.086 84.8959 210.362 85.0265C210.642 85.1572 210.929 85.2225 211.223 85.2225C211.512 85.2225 211.79 85.1759 212.056 85.0825C212.326 84.9939 212.567 84.8679 212.777 84.7045C212.991 84.5412 213.162 84.3452 213.288 84.1165C213.414 83.8879 213.477 83.6382 213.477 83.3675V82.1845C213.248 82.5392 212.954 82.8262 212.595 83.0455C212.235 83.2602 211.818 83.3675 211.342 83.3675C210.847 83.3675 210.38 83.2719 209.942 83.0805C209.503 82.8892 209.118 82.6255 208.787 82.2895C208.455 81.9489 208.196 81.5569 208.01 81.1135C207.823 80.6702 207.73 80.1942 207.73 79.6855C207.73 79.1769 207.823 78.7009 208.01 78.2575C208.196 77.8095 208.455 77.4175 208.787 77.0815C209.118 76.7409 209.503 76.4749 209.942 76.2835C210.38 76.0922 210.847 75.9965 211.342 75.9965C211.818 75.9965 212.235 76.1062 212.595 76.3255C212.954 76.5402 213.248 76.8272 213.477 77.1865V76.1855ZM211.356 81.9605C211.762 81.9605 212.116 81.8579 212.42 81.6525C212.723 81.4425 212.959 81.1649 213.127 80.8195C213.295 80.4742 213.379 80.0962 213.379 79.6855C213.379 79.2655 213.292 78.8852 213.12 78.5445C212.952 78.1992 212.716 77.9239 212.413 77.7185C212.109 77.5085 211.757 77.4035 211.356 77.4035C210.964 77.4035 210.604 77.5062 210.278 77.7115C209.956 77.9169 209.699 78.1922 209.508 78.5375C209.316 78.8829 209.221 79.2655 209.221 79.6855C209.221 80.1055 209.316 80.4882 209.508 80.8335C209.704 81.1789 209.963 81.4542 210.285 81.6595C210.611 81.8602 210.968 81.9605 211.356 81.9605ZM224.771 76.1855H226.325L222.489 86.6855H220.942L222.209 83.1855L219.696 76.1855H221.285L222.937 81.1905L224.771 76.1855ZM230.206 83.3675C229.562 83.3675 228.974 83.2019 228.442 82.8705C227.915 82.5392 227.492 82.0959 227.175 81.5405C226.862 80.9805 226.706 80.3622 226.706 79.6855C226.706 79.1722 226.797 78.6939 226.979 78.2505C227.161 77.8025 227.411 77.4105 227.728 77.0745C228.05 76.7339 228.423 76.4679 228.848 76.2765C229.273 76.0852 229.725 75.9895 230.206 75.9895C230.85 75.9895 231.436 76.1552 231.963 76.4865C232.495 76.8179 232.917 77.2635 233.23 77.8235C233.547 78.3835 233.706 79.0042 233.706 79.6855C233.706 80.1942 233.615 80.6702 233.433 81.1135C233.251 81.5569 232.999 81.9489 232.677 82.2895C232.36 82.6255 231.989 82.8892 231.564 83.0805C231.144 83.2719 230.691 83.3675 230.206 83.3675ZM230.206 81.9115C230.593 81.9115 230.941 81.8089 231.249 81.6035C231.557 81.3982 231.8 81.1275 231.977 80.7915C232.159 80.4509 232.25 80.0822 232.25 79.6855C232.25 79.2795 232.157 78.9062 231.97 78.5655C231.788 78.2249 231.543 77.9542 231.235 77.7535C230.927 77.5482 230.584 77.4455 230.206 77.4455C229.823 77.4455 229.476 77.5482 229.163 77.7535C228.855 77.9589 228.61 78.2319 228.428 78.5725C228.251 78.9132 228.162 79.2842 228.162 79.6855C228.162 80.1009 228.255 80.4765 228.442 80.8125C228.629 81.1485 228.876 81.4169 229.184 81.6175C229.497 81.8135 229.837 81.9115 230.206 81.9115ZM234.42 80.5605V76.1855H235.876V80.2035C235.876 80.5162 235.953 80.8009 236.107 81.0575C236.261 81.3142 236.467 81.5195 236.723 81.6735C236.98 81.8229 237.262 81.8975 237.57 81.8975C237.883 81.8975 238.165 81.8229 238.417 81.6735C238.674 81.5195 238.877 81.3142 239.026 81.0575C239.18 80.8009 239.257 80.5162 239.257 80.2035V76.1855H240.713L240.72 83.1855H239.264L239.257 82.4295C239.019 82.7189 238.723 82.9475 238.368 83.1155C238.014 83.2835 237.633 83.3675 237.227 83.3675C236.709 83.3675 236.238 83.2415 235.813 82.9895C235.389 82.7375 235.05 82.3992 234.798 81.9745C234.546 81.5499 234.42 81.0785 234.42 80.5605ZM242.124 83.1855V76.1855H243.58V76.9275C243.823 76.6382 244.122 76.4095 244.476 76.2415C244.831 76.0735 245.214 75.9895 245.624 75.9895C245.886 75.9895 246.145 76.0245 246.401 76.0945L245.82 77.5645C245.638 77.4945 245.456 77.4595 245.274 77.4595C244.966 77.4595 244.684 77.5365 244.427 77.6905C244.171 77.8399 243.965 78.0429 243.811 78.2995C243.657 78.5562 243.58 78.8409 243.58 79.1535V83.1855H242.124ZM255.287 83.3675C254.624 83.3675 254.001 83.2369 253.418 82.9755C252.835 82.7095 252.321 82.3455 251.878 81.8835C251.439 81.4169 251.094 80.8755 250.842 80.2595C250.595 79.6435 250.471 78.9855 250.471 78.2855C250.471 77.5855 250.595 76.9275 250.842 76.3115C251.094 75.6955 251.439 75.1565 251.878 74.6945C252.321 74.2279 252.835 73.8639 253.418 73.6025C254.001 73.3365 254.624 73.2035 255.287 73.2035C256.08 73.2035 256.811 73.3879 257.478 73.7565C258.145 74.1252 258.698 74.6152 259.137 75.2265L257.842 75.9195C257.539 75.5369 257.163 75.2312 256.715 75.0025C256.267 74.7739 255.791 74.6595 255.287 74.6595C254.82 74.6595 254.384 74.7552 253.978 74.9465C253.572 75.1379 253.215 75.3992 252.907 75.7305C252.599 76.0619 252.359 76.4469 252.186 76.8855C252.013 77.3242 251.927 77.7909 251.927 78.2855C251.927 78.7849 252.013 79.2539 252.186 79.6925C252.359 80.1265 252.599 80.5115 252.907 80.8475C253.22 81.1789 253.579 81.4402 253.985 81.6315C254.391 81.8182 254.825 81.9115 255.287 81.9115C255.8 81.9115 256.279 81.7972 256.722 81.5685C257.17 81.3352 257.543 81.0272 257.842 80.6445L259.137 81.3515C258.698 81.9629 258.145 82.4529 257.478 82.8215C256.811 83.1855 256.08 83.3675 255.287 83.3675ZM260.458 83.1855V76.1855H261.914V76.9275C262.157 76.6382 262.455 76.4095 262.81 76.2415C263.165 76.0735 263.547 75.9895 263.958 75.9895C264.219 75.9895 264.478 76.0245 264.735 76.0945L264.154 77.5645C263.972 77.4945 263.79 77.4595 263.608 77.4595C263.3 77.4595 263.018 77.5365 262.761 77.6905C262.504 77.8399 262.299 78.0429 262.145 78.2995C261.991 78.5562 261.914 78.8409 261.914 79.1535V83.1855H260.458ZM268.296 83.3675C267.652 83.3675 267.064 83.2019 266.532 82.8705C266.005 82.5392 265.582 82.0959 265.265 81.5405C264.952 80.9805 264.796 80.3622 264.796 79.6855C264.796 79.1722 264.887 78.6939 265.069 78.2505C265.251 77.8025 265.501 77.4105 265.818 77.0745C266.14 76.7339 266.513 76.4679 266.938 76.2765C267.363 76.0852 267.815 75.9895 268.296 75.9895C268.833 75.9895 269.325 76.1015 269.773 76.3255C270.221 76.5449 270.604 76.8505 270.921 77.2425C271.238 77.6299 271.472 78.0779 271.621 78.5865C271.77 79.0905 271.815 79.6272 271.754 80.1965H266.357C266.418 80.5185 266.534 80.8102 266.707 81.0715C266.884 81.3282 267.108 81.5312 267.379 81.6805C267.654 81.8299 267.96 81.9069 268.296 81.9115C268.651 81.9115 268.973 81.8229 269.262 81.6455C269.556 81.4682 269.796 81.2232 269.983 80.9105L271.46 81.2535C271.18 81.8742 270.758 82.3829 270.193 82.7795C269.628 83.1715 268.996 83.3675 268.296 83.3675ZM266.308 79.0835H270.284C270.237 78.7475 270.118 78.4442 269.927 78.1735C269.74 77.8982 269.505 77.6812 269.22 77.5225C268.94 77.3592 268.632 77.2775 268.296 77.2775C267.965 77.2775 267.657 77.3569 267.372 77.5155C267.092 77.6742 266.859 77.8912 266.672 78.1665C266.49 78.4372 266.369 78.7429 266.308 79.0835ZM278.353 72.6855H279.809V83.1855H278.353V82.1565C278.124 82.5205 277.825 82.8145 277.457 83.0385C277.088 83.2579 276.656 83.3675 276.162 83.3675C275.653 83.3675 275.177 83.2719 274.734 83.0805C274.29 82.8892 273.898 82.6255 273.558 82.2895C273.222 81.9489 272.958 81.5569 272.767 81.1135C272.575 80.6702 272.48 80.1942 272.48 79.6855C272.48 79.1769 272.575 78.7009 272.767 78.2575C272.958 77.8095 273.222 77.4175 273.558 77.0815C273.898 76.7409 274.29 76.4749 274.734 76.2835C275.177 76.0922 275.653 75.9965 276.162 75.9965C276.656 75.9965 277.088 76.1085 277.457 76.3325C277.825 76.5519 278.124 76.8412 278.353 77.2005V72.6855ZM276.176 81.9605C276.586 81.9605 276.946 81.8602 277.254 81.6595C277.562 81.4542 277.8 81.1789 277.968 80.8335C278.14 80.4882 278.227 80.1055 278.227 79.6855C278.227 79.2609 278.14 78.8759 277.968 78.5305C277.795 78.1852 277.555 77.9122 277.247 77.7115C276.943 77.5062 276.586 77.4035 276.176 77.4035C275.77 77.4035 275.399 77.5062 275.063 77.7115C274.731 77.9169 274.465 78.1922 274.265 78.5375C274.069 78.8829 273.971 79.2655 273.971 79.6855C273.971 80.1102 274.071 80.4952 274.272 80.8405C274.477 81.1812 274.745 81.4542 275.077 81.6595C275.413 81.8602 275.779 81.9605 276.176 81.9605ZM281.486 76.1855H282.942V83.1855H281.486V76.1855ZM282.228 75.1705C282.004 75.1705 281.817 75.0982 281.668 74.9535C281.518 74.8089 281.444 74.6269 281.444 74.4075C281.444 74.1929 281.518 74.0132 281.668 73.8685C281.817 73.7192 282.001 73.6445 282.221 73.6445C282.435 73.6445 282.617 73.7192 282.767 73.8685C282.916 74.0132 282.991 74.1929 282.991 74.4075C282.991 74.6269 282.916 74.8089 282.767 74.9535C282.622 75.0982 282.442 75.1705 282.228 75.1705ZM288.312 77.6415H286.842L286.835 83.1855H285.379L285.386 77.6415H284.273V76.1855H285.386L285.379 73.9875H286.835L286.842 76.1855H288.312V77.6415ZM296.422 83.3675C295.885 83.3675 295.37 83.2835 294.875 83.1155C294.38 82.9475 293.949 82.7072 293.58 82.3945C293.211 82.0772 292.948 81.7015 292.789 81.2675L294.154 80.7565C294.233 80.9805 294.385 81.1812 294.609 81.3585C294.838 81.5312 295.108 81.6665 295.421 81.7645C295.738 81.8625 296.072 81.9115 296.422 81.9115C296.795 81.9115 297.145 81.8509 297.472 81.7295C297.803 81.6082 298.069 81.4402 298.27 81.2255C298.475 81.0109 298.578 80.7589 298.578 80.4695C298.578 80.1709 298.471 79.9259 298.256 79.7345C298.046 79.5432 297.775 79.3915 297.444 79.2795C297.117 79.1675 296.777 79.0835 296.422 79.0275C295.736 78.9155 295.12 78.7522 294.574 78.5375C294.033 78.3229 293.603 78.0219 293.286 77.6345C292.973 77.2472 292.817 76.7432 292.817 76.1225C292.817 75.5392 292.983 75.0305 293.314 74.5965C293.65 74.1625 294.091 73.8265 294.637 73.5885C295.188 73.3459 295.783 73.2245 296.422 73.2245C296.949 73.2245 297.458 73.3085 297.948 73.4765C298.443 73.6399 298.877 73.8802 299.25 74.1975C299.628 74.5102 299.899 74.8905 300.062 75.3385L298.683 75.8355C298.604 75.6069 298.452 75.4085 298.228 75.2405C298.004 75.0679 297.733 74.9325 297.416 74.8345C297.103 74.7365 296.772 74.6875 296.422 74.6875C296.049 74.6829 295.699 74.7435 295.372 74.8695C295.05 74.9909 294.786 75.1589 294.581 75.3735C294.376 75.5882 294.273 75.8379 294.273 76.1225C294.273 76.4725 294.369 76.7385 294.56 76.9205C294.751 77.1025 295.008 77.2379 295.33 77.3265C295.657 77.4105 296.021 77.4875 296.422 77.5575C297.066 77.6602 297.661 77.8305 298.207 78.0685C298.758 78.3065 299.199 78.6239 299.53 79.0205C299.866 79.4125 300.034 79.8955 300.034 80.4695C300.034 81.0482 299.866 81.5569 299.53 81.9955C299.199 82.4295 298.758 82.7679 298.207 83.0105C297.661 83.2485 297.066 83.3675 296.422 83.3675ZM305.99 81.1975L307.292 81.9045C306.975 82.3479 306.571 82.7025 306.081 82.9685C305.596 83.2345 305.068 83.3675 304.499 83.3675C303.855 83.3675 303.267 83.2019 302.735 82.8705C302.208 82.5392 301.785 82.0959 301.468 81.5405C301.155 80.9805 300.999 80.3622 300.999 79.6855C300.999 79.1722 301.09 78.6939 301.272 78.2505C301.454 77.8025 301.704 77.4105 302.021 77.0745C302.343 76.7339 302.716 76.4679 303.141 76.2765C303.566 76.0852 304.018 75.9895 304.499 75.9895C305.068 75.9895 305.596 76.1225 306.081 76.3885C306.571 76.6545 306.975 77.0115 307.292 77.4595L305.99 78.1665C305.794 77.9332 305.565 77.7559 305.304 77.6345C305.043 77.5085 304.774 77.4455 304.499 77.4455C304.116 77.4455 303.769 77.5505 303.456 77.7605C303.148 77.9659 302.903 78.2389 302.721 78.5795C302.544 78.9155 302.455 79.2842 302.455 79.6855C302.455 80.0822 302.546 80.4509 302.728 80.7915C302.91 81.1275 303.155 81.3982 303.463 81.6035C303.776 81.8089 304.121 81.9115 304.499 81.9115C304.788 81.9115 305.064 81.8462 305.325 81.7155C305.586 81.5849 305.808 81.4122 305.99 81.1975ZM311.458 83.3675C310.814 83.3675 310.226 83.2019 309.694 82.8705C309.167 82.5392 308.744 82.0959 308.427 81.5405C308.114 80.9805 307.958 80.3622 307.958 79.6855C307.958 79.1722 308.049 78.6939 308.231 78.2505C308.413 77.8025 308.663 77.4105 308.98 77.0745C309.302 76.7339 309.675 76.4679 310.1 76.2765C310.525 76.0852 310.977 75.9895 311.458 75.9895C312.102 75.9895 312.688 76.1552 313.215 76.4865C313.747 76.8179 314.169 77.2635 314.482 77.8235C314.799 78.3835 314.958 79.0042 314.958 79.6855C314.958 80.1942 314.867 80.6702 314.685 81.1135C314.503 81.5569 314.251 81.9489 313.929 82.2895C313.612 82.6255 313.241 82.8892 312.816 83.0805C312.396 83.2719 311.943 83.3675 311.458 83.3675ZM311.458 81.9115C311.845 81.9115 312.193 81.8089 312.501 81.6035C312.809 81.3982 313.052 81.1275 313.229 80.7915C313.411 80.4509 313.502 80.0822 313.502 79.6855C313.502 79.2795 313.409 78.9062 313.222 78.5655C313.04 78.2249 312.795 77.9542 312.487 77.7535C312.179 77.5482 311.836 77.4455 311.458 77.4455C311.075 77.4455 310.728 77.5482 310.415 77.7535C310.107 77.9589 309.862 78.2319 309.68 78.5725C309.503 78.9132 309.414 79.2842 309.414 79.6855C309.414 80.1009 309.507 80.4765 309.694 80.8125C309.881 81.1485 310.128 81.4169 310.436 81.6175C310.749 81.8135 311.089 81.9115 311.458 81.9115ZM316.089 83.1855V76.1855H317.545V76.9275C317.788 76.6382 318.086 76.4095 318.441 76.2415C318.796 76.0735 319.178 75.9895 319.589 75.9895C319.85 75.9895 320.109 76.0245 320.366 76.0945L319.785 77.5645C319.603 77.4945 319.421 77.4595 319.239 77.4595C318.931 77.4595 318.649 77.5365 318.392 77.6905C318.135 77.8399 317.93 78.0429 317.776 78.2995C317.622 78.5562 317.545 78.8409 317.545 79.1535V83.1855H316.089ZM323.927 83.3675C323.283 83.3675 322.695 83.2019 322.163 82.8705C321.636 82.5392 321.213 82.0959 320.896 81.5405C320.583 80.9805 320.427 80.3622 320.427 79.6855C320.427 79.1722 320.518 78.6939 320.7 78.2505C320.882 77.8025 321.132 77.4105 321.449 77.0745C321.771 76.7339 322.144 76.4679 322.569 76.2765C322.994 76.0852 323.446 75.9895 323.927 75.9895C324.464 75.9895 324.956 76.1015 325.404 76.3255C325.852 76.5449 326.235 76.8505 326.552 77.2425C326.869 77.6299 327.103 78.0779 327.252 78.5865C327.401 79.0905 327.446 79.6272 327.385 80.1965H321.988C322.049 80.5185 322.165 80.8102 322.338 81.0715C322.515 81.3282 322.739 81.5312 323.01 81.6805C323.285 81.8299 323.591 81.9069 323.927 81.9115C324.282 81.9115 324.604 81.8229 324.893 81.6455C325.187 81.4682 325.427 81.2232 325.614 80.9105L327.091 81.2535C326.811 81.8742 326.389 82.3829 325.824 82.7795C325.259 83.1715 324.627 83.3675 323.927 83.3675ZM321.939 79.0835H325.915C325.868 78.7475 325.749 78.4442 325.558 78.1735C325.371 77.8982 325.136 77.6812 324.851 77.5225C324.571 77.3592 324.263 77.2775 323.927 77.2775C323.596 77.2775 323.288 77.3569 323.003 77.5155C322.723 77.6742 322.49 77.8912 322.303 78.1665C322.121 78.4372 322 78.7429 321.939 79.0835ZM335.404 83.1855H333.955L331.61 76.1855H333.038L334.69 81.0995L336.328 76.1855H337.798L339.436 81.0995L341.081 76.1855H342.509L340.171 83.1855H338.708L337.056 78.2365L335.404 83.1855ZM343.597 76.1855H345.053V83.1855H343.597V76.1855ZM344.339 75.1705C344.115 75.1705 343.928 75.0982 343.779 74.9535C343.63 74.8089 343.555 74.6269 343.555 74.4075C343.555 74.1929 343.63 74.0132 343.779 73.8685C343.928 73.7192 344.113 73.6445 344.332 73.6445C344.547 73.6445 344.729 73.7192 344.878 73.8685C345.027 74.0132 345.102 74.1929 345.102 74.4075C345.102 74.6269 345.027 74.8089 344.878 74.9535C344.733 75.0982 344.554 75.1705 344.339 75.1705ZM346.755 83.1855V72.6855H348.211V83.1855H346.755ZM349.886 83.1855V72.6855H351.342V83.1855H349.886ZM362.68 78.7965V83.1855H361.224V79.1535C361.224 78.8409 361.147 78.5562 360.993 78.2995C360.844 78.0429 360.641 77.8399 360.384 77.6905C360.132 77.5365 359.847 77.4595 359.53 77.4595C359.222 77.4595 358.94 77.5365 358.683 77.6905C358.426 77.8399 358.221 78.0429 358.067 78.2995C357.913 78.5562 357.836 78.8409 357.836 79.1535V83.1855H356.38V76.1855H357.836V76.9275C358.079 76.6382 358.377 76.4095 358.732 76.2415C359.087 76.0735 359.469 75.9895 359.88 75.9895C360.398 75.9895 360.869 76.1155 361.294 76.3675C361.719 76.6195 362.055 76.9579 362.302 77.3825C362.554 77.8072 362.68 78.2785 362.68 78.7965ZM367.021 83.3675C366.377 83.3675 365.789 83.2019 365.257 82.8705C364.729 82.5392 364.307 82.0959 363.99 81.5405C363.677 80.9805 363.521 80.3622 363.521 79.6855C363.521 79.1722 363.612 78.6939 363.794 78.2505C363.976 77.8025 364.225 77.4105 364.543 77.0745C364.865 76.7339 365.238 76.4679 365.663 76.2765C366.087 76.0852 366.54 75.9895 367.021 75.9895C367.665 75.9895 368.25 76.1552 368.778 76.4865C369.31 76.8179 369.732 77.2635 370.045 77.8235C370.362 78.3835 370.521 79.0042 370.521 79.6855C370.521 80.1942 370.43 80.6702 370.248 81.1135C370.066 81.5569 369.814 81.9489 369.492 82.2895C369.174 82.6255 368.803 82.8892 368.379 83.0805C367.959 83.2719 367.506 83.3675 367.021 83.3675ZM367.021 81.9115C367.408 81.9115 367.756 81.8089 368.064 81.6035C368.372 81.3982 368.614 81.1275 368.792 80.7915C368.974 80.4509 369.065 80.0822 369.065 79.6855C369.065 79.2795 368.971 78.9062 368.785 78.5655C368.603 78.2249 368.358 77.9542 368.05 77.7535C367.742 77.5482 367.399 77.4455 367.021 77.4455C366.638 77.4455 366.29 77.5482 365.978 77.7535C365.67 77.9589 365.425 78.2319 365.243 78.5725C365.065 78.9132 364.977 79.2842 364.977 79.6855C364.977 80.1009 365.07 80.4765 365.257 80.8125C365.443 81.1485 365.691 81.4169 365.999 81.6175C366.311 81.8135 366.652 81.9115 367.021 81.9115ZM375.307 77.6415H373.837L373.83 83.1855H372.374L372.381 77.6415H371.268V76.1855H372.381L372.374 73.9875H373.83L373.837 76.1855H375.307V77.6415ZM193.862 96.1855H195.318V103.186H193.862V96.1855ZM194.604 95.1705C194.38 95.1705 194.194 95.0982 194.044 94.9535C193.895 94.8089 193.82 94.6269 193.82 94.4075C193.82 94.1929 193.895 94.0132 194.044 93.8685C194.194 93.7192 194.378 93.6445 194.597 93.6445C194.812 93.6445 194.994 93.7192 195.143 93.8685C195.293 94.0132 195.367 94.1929 195.367 94.4075C195.367 94.6269 195.293 94.8089 195.143 94.9535C194.999 95.0982 194.819 95.1705 194.604 95.1705ZM196.939 103.186V96.1855H198.395V96.9275C198.637 96.6382 198.934 96.4095 199.284 96.2415C199.638 96.0735 200.021 95.9895 200.432 95.9895C200.931 95.9895 201.391 96.1109 201.811 96.3535C202.231 96.5915 202.564 96.9089 202.812 97.3055C203.059 96.9089 203.388 96.5915 203.799 96.3535C204.214 96.1109 204.671 95.9895 205.171 95.9895C205.689 95.9895 206.16 96.1155 206.585 96.3675C207.009 96.6195 207.348 96.9579 207.6 97.3825C207.852 97.8072 207.978 98.2785 207.978 98.7965V103.186H206.522V99.1675C206.522 98.8595 206.447 98.5772 206.298 98.3205C206.148 98.0639 205.948 97.8562 205.696 97.6975C205.444 97.5389 205.164 97.4595 204.856 97.4595C204.548 97.4595 204.268 97.5342 204.016 97.6835C203.764 97.8329 203.563 98.0359 203.414 98.2925C203.264 98.5492 203.19 98.8409 203.19 99.1675V103.186H201.734V99.1675C201.734 98.8409 201.659 98.5492 201.51 98.2925C201.36 98.0359 201.157 97.8329 200.901 97.6835C200.649 97.5342 200.369 97.4595 200.061 97.4595C199.757 97.4595 199.477 97.5389 199.221 97.6975C198.969 97.8562 198.768 98.0639 198.619 98.3205C198.469 98.5772 198.395 98.8595 198.395 99.1675V103.186H196.939ZM210.836 106.686H209.38V96.1855H210.836V97.2145C211.069 96.8552 211.368 96.5635 211.732 96.3395C212.096 96.1155 212.525 96.0035 213.02 96.0035C213.529 96.0035 214.005 96.0992 214.448 96.2905C214.896 96.4819 215.288 96.7479 215.624 97.0885C215.96 97.4245 216.224 97.8142 216.415 98.2575C216.606 98.7009 216.702 99.1769 216.702 99.6855C216.702 100.194 216.606 100.673 216.415 101.121C216.224 101.569 215.96 101.963 215.624 102.304C215.288 102.64 214.896 102.903 214.448 103.095C214.005 103.286 213.529 103.382 213.02 103.382C212.525 103.382 212.096 103.27 211.732 103.046C211.368 102.817 211.069 102.525 210.836 102.171V106.686ZM213.006 97.4105C212.6 97.4105 212.243 97.5132 211.935 97.7185C211.627 97.9239 211.387 98.1992 211.214 98.5445C211.041 98.8852 210.955 99.2655 210.955 99.6855C210.955 100.106 211.041 100.488 211.214 100.834C211.387 101.179 211.627 101.454 211.935 101.66C212.243 101.865 212.6 101.968 213.006 101.968C213.407 101.968 213.776 101.867 214.112 101.667C214.448 101.461 214.716 101.186 214.917 100.841C215.118 100.495 215.218 100.11 215.218 99.6855C215.218 99.2702 215.118 98.8899 214.917 98.5445C214.721 98.1992 214.455 97.9239 214.119 97.7185C213.783 97.5132 213.412 97.4105 213.006 97.4105ZM223.275 96.1855H224.731V103.186H223.268L223.212 102.171C223.007 102.53 222.729 102.819 222.379 103.039C222.029 103.258 221.616 103.368 221.14 103.368C220.627 103.368 220.144 103.272 219.691 103.081C219.239 102.885 218.84 102.614 218.494 102.269C218.154 101.923 217.888 101.527 217.696 101.079C217.505 100.626 217.409 100.141 217.409 99.6225C217.409 99.1232 217.503 98.6542 217.689 98.2155C217.876 97.7722 218.135 97.3849 218.466 97.0535C218.798 96.7222 219.18 96.4632 219.614 96.2765C220.053 96.0852 220.522 95.9895 221.021 95.9895C221.53 95.9895 221.978 96.1062 222.365 96.3395C222.757 96.5682 223.082 96.8622 223.338 97.2215L223.275 96.1855ZM221.105 101.961C221.516 101.961 221.875 101.86 222.183 101.66C222.491 101.454 222.729 101.179 222.897 100.834C223.07 100.488 223.156 100.106 223.156 99.6855C223.156 99.2609 223.07 98.8759 222.897 98.5305C222.725 98.1852 222.484 97.9122 222.176 97.7115C221.873 97.5062 221.516 97.4035 221.105 97.4035C220.699 97.4035 220.328 97.5062 219.992 97.7115C219.656 97.9169 219.39 98.1922 219.194 98.5375C218.998 98.8829 218.9 99.2655 218.9 99.6855C218.9 100.11 219.001 100.495 219.201 100.841C219.407 101.181 219.675 101.454 220.006 101.66C220.342 101.86 220.709 101.961 221.105 101.961ZM230.562 101.198L231.864 101.905C231.547 102.348 231.143 102.703 230.653 102.969C230.168 103.235 229.641 103.368 229.071 103.368C228.427 103.368 227.839 103.202 227.307 102.871C226.78 102.539 226.358 102.096 226.04 101.541C225.728 100.981 225.571 100.362 225.571 99.6855C225.571 99.1722 225.662 98.6939 225.844 98.2505C226.026 97.8025 226.276 97.4105 226.593 97.0745C226.915 96.7339 227.289 96.4679 227.713 96.2765C228.138 96.0852 228.591 95.9895 229.071 95.9895C229.641 95.9895 230.168 96.1225 230.653 96.3885C231.143 96.6545 231.547 97.0115 231.864 97.4595L230.562 98.1665C230.366 97.9332 230.138 97.7559 229.876 97.6345C229.615 97.5085 229.347 97.4455 229.071 97.4455C228.689 97.4455 228.341 97.5505 228.028 97.7605C227.72 97.9659 227.475 98.2389 227.293 98.5795C227.116 98.9155 227.027 99.2842 227.027 99.6855C227.027 100.082 227.118 100.451 227.3 100.792C227.482 101.128 227.727 101.398 228.035 101.604C228.348 101.809 228.693 101.912 229.071 101.912C229.361 101.912 229.636 101.846 229.897 101.716C230.159 101.585 230.38 101.412 230.562 101.198ZM236.824 97.6415H235.354L235.347 103.186H233.891L233.898 97.6415H232.785V96.1855H233.898L233.891 93.9875H235.347L235.354 96.1855H236.824V97.6415ZM246.236 96.1855H247.79L243.954 106.686H242.407L243.674 103.186L241.161 96.1855H242.75L244.402 101.191L246.236 96.1855ZM251.671 103.368C251.027 103.368 250.439 103.202 249.907 102.871C249.38 102.539 248.957 102.096 248.64 101.541C248.327 100.981 248.171 100.362 248.171 99.6855C248.171 99.1722 248.262 98.6939 248.444 98.2505C248.626 97.8025 248.876 97.4105 249.193 97.0745C249.515 96.7339 249.888 96.4679 250.313 96.2765C250.738 96.0852 251.19 95.9895 251.671 95.9895C252.315 95.9895 252.901 96.1552 253.428 96.4865C253.96 96.8179 254.382 97.2635 254.695 97.8235C255.012 98.3835 255.171 99.0042 255.171 99.6855C255.171 100.194 255.08 100.67 254.898 101.114C254.716 101.557 254.464 101.949 254.142 102.29C253.825 102.626 253.454 102.889 253.029 103.081C252.609 103.272 252.156 103.368 251.671 103.368ZM251.671 101.912C252.058 101.912 252.406 101.809 252.714 101.604C253.022 101.398 253.265 101.128 253.442 100.792C253.624 100.451 253.715 100.082 253.715 99.6855C253.715 99.2795 253.622 98.9062 253.435 98.5655C253.253 98.2249 253.008 97.9542 252.7 97.7535C252.392 97.5482 252.049 97.4455 251.671 97.4455C251.288 97.4455 250.941 97.5482 250.628 97.7535C250.32 97.9589 250.075 98.2319 249.893 98.5725C249.716 98.9132 249.627 99.2842 249.627 99.6855C249.627 100.101 249.72 100.477 249.907 100.813C250.094 101.149 250.341 101.417 250.649 101.618C250.962 101.814 251.302 101.912 251.671 101.912ZM255.885 100.561V96.1855H257.341V100.204C257.341 100.516 257.418 100.801 257.572 101.058C257.726 101.314 257.932 101.52 258.188 101.674C258.445 101.823 258.727 101.898 259.035 101.898C259.348 101.898 259.63 101.823 259.882 101.674C260.139 101.52 260.342 101.314 260.491 101.058C260.645 100.801 260.722 100.516 260.722 100.204V96.1855H262.178L262.185 103.186H260.729L260.722 102.43C260.484 102.719 260.188 102.948 259.833 103.116C259.479 103.284 259.098 103.368 258.692 103.368C258.174 103.368 257.703 103.242 257.278 102.99C256.854 102.738 256.515 102.399 256.263 101.975C256.011 101.55 255.885 101.079 255.885 100.561ZM263.589 103.186V96.1855H265.045V96.9275C265.288 96.6382 265.586 96.4095 265.941 96.2415C266.296 96.0735 266.678 95.9895 267.089 95.9895C267.35 95.9895 267.609 96.0245 267.866 96.0945L267.285 97.5645C267.103 97.4945 266.921 97.4595 266.739 97.4595C266.431 97.4595 266.149 97.5365 265.892 97.6905C265.635 97.8399 265.43 98.0429 265.276 98.2995C265.122 98.5562 265.045 98.8409 265.045 99.1535V103.186H263.589ZM276.752 103.368C276.089 103.368 275.466 103.237 274.883 102.976C274.3 102.71 273.786 102.346 273.343 101.884C272.904 101.417 272.559 100.876 272.307 100.26C272.06 99.6435 271.936 98.9855 271.936 98.2855C271.936 97.5855 272.06 96.9275 272.307 96.3115C272.559 95.6955 272.904 95.1565 273.343 94.6945C273.786 94.2279 274.3 93.8639 274.883 93.6025C275.466 93.3365 276.089 93.2035 276.752 93.2035C277.545 93.2035 278.276 93.3879 278.943 93.7565C279.61 94.1252 280.163 94.6152 280.602 95.2265L279.307 95.9195C279.004 95.5369 278.628 95.2312 278.18 95.0025C277.732 94.7739 277.256 94.6595 276.752 94.6595C276.285 94.6595 275.849 94.7552 275.443 94.9465C275.037 95.1379 274.68 95.3992 274.372 95.7305C274.064 96.0619 273.824 96.4469 273.651 96.8855C273.478 97.3242 273.392 97.7909 273.392 98.2855C273.392 98.7849 273.478 99.2539 273.651 99.6925C273.824 100.127 274.064 100.512 274.372 100.848C274.685 101.179 275.044 101.44 275.45 101.632C275.856 101.818 276.29 101.912 276.752 101.912C277.265 101.912 277.744 101.797 278.187 101.569C278.635 101.335 279.008 101.027 279.307 100.645L280.602 101.352C280.163 101.963 279.61 102.453 278.943 102.822C278.276 103.186 277.545 103.368 276.752 103.368ZM282.174 103.186V93.3855H283.63V103.186H282.174ZM285.519 103.186V93.3855H288.998C289.502 93.3855 289.957 93.4882 290.363 93.6935C290.773 93.8989 291.098 94.1952 291.336 94.5825C291.578 94.9652 291.7 95.4249 291.7 95.9615C291.7 96.2229 291.658 96.4795 291.574 96.7315C291.49 96.9835 291.371 97.2052 291.217 97.3965C291.063 97.5879 290.876 97.7232 290.657 97.8025C290.955 97.8772 291.203 98.0125 291.399 98.2085C291.599 98.3999 291.758 98.6239 291.875 98.8805C291.991 99.1372 292.073 99.4032 292.12 99.6785C292.171 99.9539 292.197 100.215 292.197 100.463C292.197 100.985 292.071 101.452 291.819 101.863C291.567 102.273 291.228 102.598 290.804 102.836C290.384 103.069 289.919 103.186 289.411 103.186H285.519ZM286.975 101.926H289.271C289.569 101.926 289.84 101.851 290.083 101.702C290.33 101.552 290.526 101.347 290.671 101.086C290.815 100.82 290.888 100.521 290.888 100.19C290.888 99.9002 290.815 99.6272 290.671 99.3705C290.526 99.1092 290.33 98.8992 290.083 98.7405C289.84 98.5819 289.569 98.5025 289.271 98.5025H286.975V101.926ZM286.975 97.2635H288.844C289.226 97.2635 289.555 97.1469 289.831 96.9135C290.106 96.6802 290.244 96.3605 290.244 95.9545C290.244 95.5205 290.106 95.1962 289.831 94.9815C289.555 94.7622 289.226 94.6525 288.844 94.6525H286.975V97.2635ZM293.59 103.186V93.3855H295.046V103.186H293.59ZM296.935 103.186V93.3855H298.391V101.73H302.612V103.186H296.935ZM307.517 103.186V96.1855H308.973V96.9275C309.215 96.6382 309.514 96.4095 309.869 96.2415C310.223 96.0735 310.606 95.9895 311.017 95.9895C311.278 95.9895 311.537 96.0245 311.794 96.0945L311.213 97.5645C311.031 97.4945 310.849 97.4595 310.667 97.4595C310.359 97.4595 310.076 97.5365 309.82 97.6905C309.563 97.8399 309.358 98.0429 309.204 98.2995C309.05 98.5562 308.973 98.8409 308.973 99.1535V103.186H307.517ZM317.721 96.1855H319.177V103.186H317.714L317.658 102.171C317.452 102.53 317.175 102.819 316.825 103.039C316.475 103.258 316.062 103.368 315.586 103.368C315.072 103.368 314.589 103.272 314.137 103.081C313.684 102.885 313.285 102.614 312.94 102.269C312.599 101.923 312.333 101.527 312.142 101.079C311.95 100.626 311.855 100.141 311.855 99.6225C311.855 99.1232 311.948 98.6542 312.135 98.2155C312.321 97.7722 312.58 97.3849 312.912 97.0535C313.243 96.7222 313.626 96.4632 314.06 96.2765C314.498 96.0852 314.967 95.9895 315.467 95.9895C315.975 95.9895 316.423 96.1062 316.811 96.3395C317.203 96.5682 317.527 96.8622 317.784 97.2215L317.721 96.1855ZM315.551 101.961C315.961 101.961 316.321 101.86 316.629 101.66C316.937 101.454 317.175 101.179 317.343 100.834C317.515 100.488 317.602 100.106 317.602 99.6855C317.602 99.2609 317.515 98.8759 317.343 98.5305C317.17 98.1852 316.93 97.9122 316.622 97.7115C316.318 97.5062 315.961 97.4035 315.551 97.4035C315.145 97.4035 314.774 97.5062 314.438 97.7115C314.102 97.9169 313.836 98.1922 313.64 98.5375C313.444 98.8829 313.346 99.2655 313.346 99.6855C313.346 100.11 313.446 100.495 313.647 100.841C313.852 101.181 314.12 101.454 314.452 101.66C314.788 101.86 315.154 101.961 315.551 101.961ZM324.269 97.6415H322.799L322.792 103.186H321.336L321.343 97.6415H320.23V96.1855H321.343L321.336 93.9875H322.792L322.799 96.1855H324.269V97.6415ZM325.427 96.1855H326.883V103.186H325.427V96.1855ZM326.169 95.1705C325.945 95.1705 325.758 95.0982 325.609 94.9535C325.46 94.8089 325.385 94.6269 325.385 94.4075C325.385 94.1929 325.46 94.0132 325.609 93.8685C325.758 93.7192 325.943 93.6445 326.162 93.6445C326.377 93.6445 326.559 93.7192 326.708 93.8685C326.857 94.0132 326.932 94.1929 326.932 94.4075C326.932 94.6269 326.857 94.8089 326.708 94.9535C326.563 95.0982 326.384 95.1705 326.169 95.1705ZM334.803 98.7965V103.186H333.347V99.1535C333.347 98.8409 333.27 98.5562 333.116 98.2995C332.967 98.0429 332.764 97.8399 332.507 97.6905C332.255 97.5365 331.97 97.4595 331.653 97.4595C331.345 97.4595 331.063 97.5365 330.806 97.6905C330.549 97.8399 330.344 98.0429 330.19 98.2995C330.036 98.5562 329.959 98.8409 329.959 99.1535V103.186H328.503V96.1855H329.959V96.9275C330.202 96.6382 330.5 96.4095 330.855 96.2415C331.21 96.0735 331.592 95.9895 332.003 95.9895C332.521 95.9895 332.992 96.1155 333.417 96.3675C333.842 96.6195 334.178 96.9579 334.425 97.3825C334.677 97.8072 334.803 98.2785 334.803 98.7965ZM341.391 96.1855H342.847V103.368C342.847 103.848 342.744 104.292 342.539 104.698C342.338 105.104 342.065 105.454 341.72 105.748C341.374 106.046 340.978 106.277 340.53 106.441C340.086 106.604 339.622 106.686 339.137 106.686C338.647 106.686 338.175 106.581 337.723 106.371C337.27 106.165 336.871 105.885 336.526 105.531C336.185 105.176 335.931 104.775 335.763 104.327L337.1 103.725C337.193 104.014 337.342 104.271 337.548 104.495C337.758 104.719 338 104.896 338.276 105.027C338.556 105.157 338.843 105.223 339.137 105.223C339.426 105.223 339.704 105.176 339.97 105.083C340.24 104.994 340.481 104.868 340.691 104.705C340.905 104.541 341.076 104.345 341.202 104.117C341.328 103.888 341.391 103.638 341.391 103.368V102.185C341.162 102.539 340.868 102.826 340.509 103.046C340.149 103.26 339.732 103.368 339.256 103.368C338.761 103.368 338.294 103.272 337.856 103.081C337.417 102.889 337.032 102.626 336.701 102.29C336.369 101.949 336.11 101.557 335.924 101.114C335.737 100.67 335.644 100.194 335.644 99.6855C335.644 99.1769 335.737 98.7009 335.924 98.2575C336.11 97.8095 336.369 97.4175 336.701 97.0815C337.032 96.7409 337.417 96.4749 337.856 96.2835C338.294 96.0922 338.761 95.9965 339.256 95.9965C339.732 95.9965 340.149 96.1062 340.509 96.3255C340.868 96.5402 341.162 96.8272 341.391 97.1865V96.1855ZM339.27 101.961C339.676 101.961 340.03 101.858 340.334 101.653C340.637 101.443 340.873 101.165 341.041 100.82C341.209 100.474 341.293 100.096 341.293 99.6855C341.293 99.2655 341.206 98.8852 341.034 98.5445C340.866 98.1992 340.63 97.9239 340.327 97.7185C340.023 97.5085 339.671 97.4035 339.27 97.4035C338.878 97.4035 338.518 97.5062 338.192 97.7115C337.87 97.9169 337.613 98.1922 337.422 98.5375C337.23 98.8829 337.135 99.2655 337.135 99.6855C337.135 100.106 337.23 100.488 337.422 100.834C337.618 101.179 337.877 101.454 338.199 101.66C338.525 101.86 338.882 101.961 339.27 101.961Z" fill="#6C6C6C"/>
<path d="M160.631 315.263V306.919H159.462L159.861 305.463H162.087V315.263H160.631ZM167.43 315.445C166.851 315.445 166.328 315.314 165.862 315.053C165.4 314.787 165.001 314.42 164.665 313.954C164.329 313.487 164.072 312.948 163.895 312.337C163.717 311.721 163.629 311.063 163.629 310.363C163.629 309.663 163.717 309.005 163.895 308.389C164.072 307.773 164.329 307.234 164.665 306.772C165.001 306.305 165.4 305.941 165.862 305.68C166.328 305.414 166.851 305.281 167.43 305.281C167.999 305.281 168.517 305.414 168.984 305.68C169.45 305.941 169.847 306.305 170.174 306.772C170.505 307.234 170.759 307.773 170.937 308.389C171.114 309.005 171.203 309.663 171.203 310.363C171.203 311.063 171.114 311.721 170.937 312.337C170.759 312.948 170.505 313.487 170.174 313.954C169.847 314.42 169.45 314.787 168.984 315.053C168.517 315.314 167.999 315.445 167.43 315.445ZM167.43 313.989C167.966 313.989 168.412 313.821 168.767 313.485C169.126 313.144 169.394 312.698 169.572 312.148C169.749 311.597 169.838 311.002 169.838 310.363C169.838 309.691 169.744 309.082 169.558 308.536C169.376 307.985 169.105 307.549 168.746 307.227C168.391 306.9 167.952 306.737 167.43 306.737C167.014 306.737 166.653 306.835 166.345 307.031C166.041 307.227 165.789 307.495 165.589 307.836C165.393 308.176 165.243 308.564 165.141 308.998C165.043 309.432 164.994 309.887 164.994 310.363C164.994 311.002 165.085 311.597 165.267 312.148C165.449 312.698 165.719 313.144 166.079 313.485C166.443 313.821 166.893 313.989 167.43 313.989ZM175.82 315.263V308.263H177.276V309.005C177.519 308.715 177.815 308.487 178.165 308.319C178.52 308.151 178.903 308.067 179.313 308.067C179.813 308.067 180.272 308.188 180.692 308.431C181.112 308.669 181.446 308.986 181.693 309.383C181.941 308.986 182.27 308.669 182.68 308.431C183.096 308.188 183.553 308.067 184.052 308.067C184.57 308.067 185.042 308.193 185.466 308.445C185.891 308.697 186.229 309.035 186.481 309.46C186.733 309.884 186.859 310.356 186.859 310.874V315.263H185.403V311.245C185.403 310.937 185.329 310.654 185.179 310.398C185.03 310.141 184.829 309.933 184.577 309.775C184.325 309.616 184.045 309.537 183.737 309.537C183.429 309.537 183.149 309.611 182.897 309.761C182.645 309.91 182.445 310.113 182.295 310.37C182.146 310.626 182.071 310.918 182.071 311.245V315.263H180.615V311.245C180.615 310.918 180.541 310.626 180.391 310.37C180.242 310.113 180.039 309.91 179.782 309.761C179.53 309.611 179.25 309.537 178.942 309.537C178.639 309.537 178.359 309.616 178.102 309.775C177.85 309.933 177.65 310.141 177.5 310.398C177.351 310.654 177.276 310.937 177.276 311.245V315.263H175.82ZM188.262 308.263H189.718V315.263H188.262V308.263ZM189.004 307.248C188.78 307.248 188.593 307.175 188.444 307.031C188.294 306.886 188.22 306.704 188.22 306.485C188.22 306.27 188.294 306.09 188.444 305.946C188.593 305.796 188.777 305.722 188.997 305.722C189.211 305.722 189.393 305.796 189.543 305.946C189.692 306.09 189.767 306.27 189.767 306.485C189.767 306.704 189.692 306.886 189.543 307.031C189.398 307.175 189.218 307.248 189.004 307.248ZM191.42 315.263V304.763H192.876V315.263H191.42ZM194.551 315.263V304.763H196.007V315.263H194.551ZM197.682 308.263H199.138V315.263H197.682V308.263ZM198.424 307.248C198.2 307.248 198.013 307.175 197.864 307.031C197.714 306.886 197.64 306.704 197.64 306.485C197.64 306.27 197.714 306.09 197.864 305.946C198.013 305.796 198.197 305.722 198.417 305.722C198.631 305.722 198.813 305.796 198.963 305.946C199.112 306.09 199.187 306.27 199.187 306.485C199.187 306.704 199.112 306.886 198.963 307.031C198.818 307.175 198.638 307.248 198.424 307.248ZM203.769 315.445C203.125 315.445 202.537 315.279 202.005 314.948C201.478 314.616 201.056 314.173 200.738 313.618C200.426 313.058 200.269 312.439 200.269 311.763C200.269 311.249 200.36 310.771 200.542 310.328C200.724 309.88 200.974 309.488 201.291 309.152C201.613 308.811 201.987 308.545 202.411 308.354C202.836 308.162 203.289 308.067 203.769 308.067C204.413 308.067 204.999 308.232 205.526 308.564C206.058 308.895 206.481 309.341 206.793 309.901C207.111 310.461 207.269 311.081 207.269 311.763C207.269 312.271 207.178 312.747 206.996 313.191C206.814 313.634 206.562 314.026 206.24 314.367C205.923 314.703 205.552 314.966 205.127 315.158C204.707 315.349 204.255 315.445 203.769 315.445ZM203.769 313.989C204.157 313.989 204.504 313.886 204.812 313.681C205.12 313.475 205.363 313.205 205.54 312.869C205.722 312.528 205.813 312.159 205.813 311.763C205.813 311.357 205.72 310.983 205.533 310.643C205.351 310.302 205.106 310.031 204.798 309.831C204.49 309.625 204.147 309.523 203.769 309.523C203.387 309.523 203.039 309.625 202.726 309.831C202.418 310.036 202.173 310.309 201.991 310.65C201.814 310.99 201.725 311.361 201.725 311.763C201.725 312.178 201.819 312.554 202.005 312.89C202.192 313.226 202.439 313.494 202.747 313.695C203.06 313.891 203.401 313.989 203.769 313.989ZM214.7 310.874V315.263H213.244V311.231C213.244 310.918 213.167 310.633 213.013 310.377C212.864 310.12 212.661 309.917 212.404 309.768C212.152 309.614 211.868 309.537 211.55 309.537C211.242 309.537 210.96 309.614 210.703 309.768C210.447 309.917 210.241 310.12 210.087 310.377C209.933 310.633 209.856 310.918 209.856 311.231V315.263H208.4V308.263H209.856V309.005C210.099 308.715 210.398 308.487 210.752 308.319C211.107 308.151 211.49 308.067 211.9 308.067C212.418 308.067 212.89 308.193 213.314 308.445C213.739 308.697 214.075 309.035 214.322 309.46C214.574 309.884 214.7 310.356 214.7 310.874ZM218.59 314.563V311.791H215.818V310.335H218.59V307.563H220.046V310.335H222.818V311.791H220.046V314.563H218.59ZM227.302 312.638V308.263H228.758V312.281C228.758 312.593 228.835 312.878 228.989 313.135C229.143 313.391 229.348 313.597 229.605 313.751C229.862 313.9 230.144 313.975 230.452 313.975C230.765 313.975 231.047 313.9 231.299 313.751C231.556 313.597 231.759 313.391 231.908 313.135C232.062 312.878 232.139 312.593 232.139 312.281V308.263H233.595L233.602 315.263H232.146L232.139 314.507C231.901 314.796 231.605 315.025 231.25 315.193C230.895 315.361 230.515 315.445 230.109 315.445C229.591 315.445 229.12 315.319 228.695 315.067C228.27 314.815 227.932 314.476 227.68 314.052C227.428 313.627 227.302 313.156 227.302 312.638ZM237.106 315.396C236.737 315.372 236.378 315.298 236.028 315.172C235.678 315.046 235.37 314.875 235.104 314.661C234.842 314.441 234.646 314.185 234.516 313.891L235.755 313.359C235.815 313.485 235.92 313.608 236.07 313.73C236.224 313.851 236.403 313.951 236.609 314.031C236.814 314.105 237.029 314.143 237.253 314.143C237.472 314.143 237.675 314.112 237.862 314.052C238.053 313.986 238.209 313.888 238.331 313.758C238.452 313.627 238.513 313.471 238.513 313.289C238.513 313.083 238.443 312.925 238.303 312.813C238.167 312.696 237.997 312.607 237.792 312.547C237.586 312.486 237.381 312.428 237.176 312.372C236.718 312.269 236.298 312.129 235.916 311.952C235.538 311.77 235.237 311.539 235.013 311.259C234.789 310.974 234.677 310.626 234.677 310.216C234.677 309.768 234.798 309.38 235.041 309.054C235.283 308.722 235.601 308.468 235.993 308.291C236.389 308.113 236.812 308.025 237.26 308.025C237.82 308.025 238.333 308.144 238.8 308.382C239.266 308.62 239.623 308.946 239.871 309.362L238.716 310.048C238.646 309.908 238.541 309.782 238.401 309.67C238.261 309.558 238.102 309.469 237.925 309.404C237.747 309.334 237.563 309.294 237.372 309.285C237.134 309.275 236.912 309.303 236.707 309.369C236.506 309.429 236.345 309.527 236.224 309.663C236.102 309.798 236.042 309.971 236.042 310.181C236.042 310.386 236.114 310.54 236.259 310.643C236.403 310.741 236.585 310.82 236.805 310.881C237.029 310.941 237.257 311.009 237.491 311.084C237.906 311.214 238.296 311.375 238.66 311.567C239.024 311.753 239.318 311.984 239.542 312.26C239.766 312.535 239.873 312.871 239.864 313.268C239.864 313.706 239.731 314.091 239.465 314.423C239.203 314.754 238.863 315.006 238.443 315.179C238.023 315.351 237.577 315.424 237.106 315.396ZM244.047 315.445C243.403 315.445 242.815 315.279 242.283 314.948C241.755 314.616 241.333 314.173 241.016 313.618C240.703 313.058 240.547 312.439 240.547 311.763C240.547 311.249 240.638 310.771 240.82 310.328C241.002 309.88 241.251 309.488 241.569 309.152C241.891 308.811 242.264 308.545 242.689 308.354C243.113 308.162 243.566 308.067 244.047 308.067C244.583 308.067 245.076 308.179 245.524 308.403C245.972 308.622 246.354 308.928 246.672 309.32C246.989 309.707 247.222 310.155 247.372 310.664C247.521 311.168 247.565 311.704 247.505 312.274H242.108C242.168 312.596 242.285 312.887 242.458 313.149C242.635 313.405 242.859 313.608 243.13 313.758C243.405 313.907 243.711 313.984 244.047 313.989C244.401 313.989 244.723 313.9 245.013 313.723C245.307 313.545 245.547 313.3 245.734 312.988L247.211 313.331C246.931 313.951 246.508 314.46 245.944 314.857C245.379 315.249 244.747 315.445 244.047 315.445ZM242.059 311.161H246.035C245.988 310.825 245.869 310.521 245.678 310.251C245.491 309.975 245.255 309.758 244.971 309.6C244.691 309.436 244.383 309.355 244.047 309.355C243.715 309.355 243.407 309.434 243.123 309.593C242.843 309.751 242.609 309.968 242.423 310.244C242.241 310.514 242.119 310.82 242.059 311.161ZM248.664 315.263V308.263H250.12V309.005C250.363 308.715 250.661 308.487 251.016 308.319C251.371 308.151 251.753 308.067 252.164 308.067C252.425 308.067 252.684 308.102 252.941 308.172L252.36 309.642C252.178 309.572 251.996 309.537 251.814 309.537C251.506 309.537 251.224 309.614 250.967 309.768C250.71 309.917 250.505 310.12 250.351 310.377C250.197 310.633 250.12 310.918 250.12 311.231V315.263H248.664ZM255.85 315.396C255.481 315.372 255.122 315.298 254.772 315.172C254.422 315.046 254.114 314.875 253.848 314.661C253.587 314.441 253.391 314.185 253.26 313.891L254.499 313.359C254.56 313.485 254.665 313.608 254.814 313.73C254.968 313.851 255.148 313.951 255.353 314.031C255.558 314.105 255.773 314.143 255.997 314.143C256.216 314.143 256.419 314.112 256.606 314.052C256.797 313.986 256.954 313.888 257.075 313.758C257.196 313.627 257.257 313.471 257.257 313.289C257.257 313.083 257.187 312.925 257.047 312.813C256.912 312.696 256.741 312.607 256.536 312.547C256.331 312.486 256.125 312.428 255.92 312.372C255.463 312.269 255.043 312.129 254.66 311.952C254.282 311.77 253.981 311.539 253.757 311.259C253.533 310.974 253.421 310.626 253.421 310.216C253.421 309.768 253.542 309.38 253.785 309.054C254.028 308.722 254.345 308.468 254.737 308.291C255.134 308.113 255.556 308.025 256.004 308.025C256.564 308.025 257.077 308.144 257.544 308.382C258.011 308.62 258.368 308.946 258.615 309.362L257.46 310.048C257.39 309.908 257.285 309.782 257.145 309.67C257.005 309.558 256.846 309.469 256.669 309.404C256.492 309.334 256.307 309.294 256.116 309.285C255.878 309.275 255.656 309.303 255.451 309.369C255.25 309.429 255.089 309.527 254.968 309.663C254.847 309.798 254.786 309.971 254.786 310.181C254.786 310.386 254.858 310.54 255.003 310.643C255.148 310.741 255.33 310.82 255.549 310.881C255.773 310.941 256.002 311.009 256.235 311.084C256.65 311.214 257.04 311.375 257.404 311.567C257.768 311.753 258.062 311.984 258.286 312.26C258.51 312.535 258.617 312.871 258.608 313.268C258.608 313.706 258.475 314.091 258.209 314.423C257.948 314.754 257.607 315.006 257.187 315.179C256.767 315.351 256.321 315.424 255.85 315.396ZM269.47 310.874V315.263H268.014V311.231C268.014 310.918 267.937 310.633 267.783 310.377C267.634 310.12 267.431 309.917 267.174 309.768C266.922 309.614 266.637 309.537 266.32 309.537C266.012 309.537 265.73 309.614 265.473 309.768C265.216 309.917 265.011 310.12 264.857 310.377C264.703 310.633 264.626 310.918 264.626 311.231V315.263H263.17V304.763H264.626V309.005C264.869 308.715 265.167 308.487 265.522 308.319C265.877 308.151 266.259 308.067 266.67 308.067C267.188 308.067 267.659 308.193 268.084 308.445C268.509 308.697 268.845 309.035 269.092 309.46C269.344 309.884 269.47 310.356 269.47 310.874ZM276.176 308.263H277.632V315.263H276.169L276.113 314.248C275.908 314.607 275.63 314.896 275.28 315.116C274.93 315.335 274.517 315.445 274.041 315.445C273.528 315.445 273.045 315.349 272.592 315.158C272.14 314.962 271.741 314.691 271.395 314.346C271.055 314 270.789 313.604 270.597 313.156C270.406 312.703 270.31 312.218 270.31 311.7C270.31 311.2 270.404 310.731 270.59 310.293C270.777 309.849 271.036 309.462 271.367 309.131C271.699 308.799 272.081 308.54 272.515 308.354C272.954 308.162 273.423 308.067 273.922 308.067C274.431 308.067 274.879 308.183 275.266 308.417C275.658 308.645 275.983 308.939 276.239 309.299L276.176 308.263ZM274.006 314.038C274.417 314.038 274.776 313.937 275.084 313.737C275.392 313.531 275.63 313.256 275.798 312.911C275.971 312.565 276.057 312.183 276.057 311.763C276.057 311.338 275.971 310.953 275.798 310.608C275.626 310.262 275.385 309.989 275.077 309.789C274.774 309.583 274.417 309.481 274.006 309.481C273.6 309.481 273.229 309.583 272.893 309.789C272.557 309.994 272.291 310.269 272.095 310.615C271.899 310.96 271.801 311.343 271.801 311.763C271.801 312.187 271.902 312.572 272.102 312.918C272.308 313.258 272.576 313.531 272.907 313.737C273.243 313.937 273.61 314.038 274.006 314.038ZM282.773 315.263H280.904L278.349 308.249H279.903L281.835 313.583L283.774 308.249H285.321L282.773 315.263ZM289.205 315.445C288.561 315.445 287.973 315.279 287.441 314.948C286.914 314.616 286.491 314.173 286.174 313.618C285.861 313.058 285.705 312.439 285.705 311.763C285.705 311.249 285.796 310.771 285.978 310.328C286.16 309.88 286.41 309.488 286.727 309.152C287.049 308.811 287.422 308.545 287.847 308.354C288.272 308.162 288.724 308.067 289.205 308.067C289.742 308.067 290.234 308.179 290.682 308.403C291.13 308.622 291.513 308.928 291.83 309.32C292.147 309.707 292.381 310.155 292.53 310.664C292.679 311.168 292.724 311.704 292.663 312.274H287.266C287.327 312.596 287.443 312.887 287.616 313.149C287.793 313.405 288.017 313.608 288.288 313.758C288.563 313.907 288.869 313.984 289.205 313.989C289.56 313.989 289.882 313.9 290.171 313.723C290.465 313.545 290.705 313.3 290.892 312.988L292.369 313.331C292.089 313.951 291.667 314.46 291.102 314.857C290.537 315.249 289.905 315.445 289.205 315.445ZM287.217 311.161H291.193C291.146 310.825 291.027 310.521 290.836 310.251C290.649 309.975 290.414 309.758 290.129 309.6C289.849 309.436 289.541 309.355 289.205 309.355C288.874 309.355 288.566 309.434 288.281 309.593C288.001 309.751 287.768 309.968 287.581 310.244C287.399 310.514 287.278 310.82 287.217 311.161ZM302.755 308.263H304.211V315.263H302.748L302.692 314.248C302.486 314.607 302.209 314.896 301.859 315.116C301.509 315.335 301.096 315.445 300.62 315.445C300.106 315.445 299.623 315.349 299.171 315.158C298.718 314.962 298.319 314.691 297.974 314.346C297.633 314 297.367 313.604 297.176 313.156C296.984 312.703 296.889 312.218 296.889 311.7C296.889 311.2 296.982 310.731 297.169 310.293C297.355 309.849 297.614 309.462 297.946 309.131C298.277 308.799 298.66 308.54 299.094 308.354C299.532 308.162 300.001 308.067 300.501 308.067C301.009 308.067 301.457 308.183 301.845 308.417C302.237 308.645 302.561 308.939 302.818 309.299L302.755 308.263ZM300.585 314.038C300.995 314.038 301.355 313.937 301.663 313.737C301.971 313.531 302.209 313.256 302.377 312.911C302.549 312.565 302.636 312.183 302.636 311.763C302.636 311.338 302.549 310.953 302.377 310.608C302.204 310.262 301.964 309.989 301.656 309.789C301.352 309.583 300.995 309.481 300.585 309.481C300.179 309.481 299.808 309.583 299.472 309.789C299.136 309.994 298.87 310.269 298.674 310.615C298.478 310.96 298.38 311.343 298.38 311.763C298.38 312.187 298.48 312.572 298.681 312.918C298.886 313.258 299.154 313.531 299.486 313.737C299.822 313.937 300.188 314.038 300.585 314.038ZM305.662 315.263V304.763H307.118V315.263H305.662ZM308.793 315.263V308.263H310.249V309.005C310.492 308.715 310.79 308.487 311.145 308.319C311.5 308.151 311.882 308.067 312.293 308.067C312.554 308.067 312.813 308.102 313.07 308.172L312.489 309.642C312.307 309.572 312.125 309.537 311.943 309.537C311.635 309.537 311.353 309.614 311.096 309.768C310.839 309.917 310.634 310.12 310.48 310.377C310.326 310.633 310.249 310.918 310.249 311.231V315.263H308.793ZM316.631 315.445C315.987 315.445 315.399 315.279 314.867 314.948C314.339 314.616 313.917 314.173 313.6 313.618C313.287 313.058 313.131 312.439 313.131 311.763C313.131 311.249 313.222 310.771 313.404 310.328C313.586 309.88 313.835 309.488 314.153 309.152C314.475 308.811 314.848 308.545 315.273 308.354C315.697 308.162 316.15 308.067 316.631 308.067C317.167 308.067 317.66 308.179 318.108 308.403C318.556 308.622 318.938 308.928 319.256 309.32C319.573 309.707 319.806 310.155 319.956 310.664C320.105 311.168 320.149 311.704 320.089 312.274H314.692C314.752 312.596 314.869 312.887 315.042 313.149C315.219 313.405 315.443 313.608 315.714 313.758C315.989 313.907 316.295 313.984 316.631 313.989C316.985 313.989 317.307 313.9 317.597 313.723C317.891 313.545 318.131 313.3 318.318 312.988L319.795 313.331C319.515 313.951 319.092 314.46 318.528 314.857C317.963 315.249 317.331 315.445 316.631 315.445ZM314.643 311.161H318.619C318.572 310.825 318.453 310.521 318.262 310.251C318.075 309.975 317.839 309.758 317.555 309.6C317.275 309.436 316.967 309.355 316.631 309.355C316.299 309.355 315.991 309.434 315.707 309.593C315.427 309.751 315.193 309.968 315.007 310.244C314.825 310.514 314.703 310.82 314.643 311.161ZM326.68 308.263H328.136V315.263H326.673L326.617 314.248C326.412 314.607 326.134 314.896 325.784 315.116C325.434 315.335 325.021 315.445 324.545 315.445C324.032 315.445 323.549 315.349 323.096 315.158C322.644 314.962 322.245 314.691 321.899 314.346C321.559 314 321.293 313.604 321.101 313.156C320.91 312.703 320.814 312.218 320.814 311.7C320.814 311.2 320.908 310.731 321.094 310.293C321.281 309.849 321.54 309.462 321.871 309.131C322.203 308.799 322.585 308.54 323.019 308.354C323.458 308.162 323.927 308.067 324.426 308.067C324.935 308.067 325.383 308.183 325.77 308.417C326.162 308.645 326.487 308.939 326.743 309.299L326.68 308.263ZM324.51 314.038C324.921 314.038 325.28 313.937 325.588 313.737C325.896 313.531 326.134 313.256 326.302 312.911C326.475 312.565 326.561 312.183 326.561 311.763C326.561 311.338 326.475 310.953 326.302 310.608C326.13 310.262 325.889 309.989 325.581 309.789C325.278 309.583 324.921 309.481 324.51 309.481C324.104 309.481 323.733 309.583 323.397 309.789C323.061 309.994 322.795 310.269 322.599 310.615C322.403 310.96 322.305 311.343 322.305 311.763C322.305 312.187 322.406 312.572 322.606 312.918C322.812 313.258 323.08 313.531 323.411 313.737C323.747 313.937 324.114 314.038 324.51 314.038ZM334.849 304.763H336.305V315.263H334.849V314.234C334.621 314.598 334.322 314.892 333.953 315.116C333.585 315.335 333.153 315.445 332.658 315.445C332.15 315.445 331.674 315.349 331.23 315.158C330.787 314.966 330.395 314.703 330.054 314.367C329.718 314.026 329.455 313.634 329.263 313.191C329.072 312.747 328.976 312.271 328.976 311.763C328.976 311.254 329.072 310.778 329.263 310.335C329.455 309.887 329.718 309.495 330.054 309.159C330.395 308.818 330.787 308.552 331.23 308.361C331.674 308.169 332.15 308.074 332.658 308.074C333.153 308.074 333.585 308.186 333.953 308.41C334.322 308.629 334.621 308.918 334.849 309.278V304.763ZM332.672 314.038C333.083 314.038 333.442 313.937 333.75 313.737C334.058 313.531 334.296 313.256 334.464 312.911C334.637 312.565 334.723 312.183 334.723 311.763C334.723 311.338 334.637 310.953 334.464 310.608C334.292 310.262 334.051 309.989 333.743 309.789C333.44 309.583 333.083 309.481 332.672 309.481C332.266 309.481 331.895 309.583 331.559 309.789C331.228 309.994 330.962 310.269 330.761 310.615C330.565 310.96 330.467 311.343 330.467 311.763C330.467 312.187 330.568 312.572 330.768 312.918C330.974 313.258 331.242 313.531 331.573 313.737C331.909 313.937 332.276 314.038 332.672 314.038ZM342.395 308.263H343.949L340.113 318.763H338.566L339.833 315.263L337.32 308.263H338.909L340.561 313.268L342.395 308.263ZM353.286 313.275L354.588 313.982C354.27 314.425 353.867 314.78 353.377 315.046C352.891 315.312 352.364 315.445 351.795 315.445C351.151 315.445 350.563 315.279 350.031 314.948C349.503 314.616 349.081 314.173 348.764 313.618C348.451 313.058 348.295 312.439 348.295 311.763C348.295 311.249 348.386 310.771 348.568 310.328C348.75 309.88 348.999 309.488 349.317 309.152C349.639 308.811 350.012 308.545 350.437 308.354C350.861 308.162 351.314 308.067 351.795 308.067C352.364 308.067 352.891 308.2 353.377 308.466C353.867 308.732 354.27 309.089 354.588 309.537L353.286 310.244C353.09 310.01 352.861 309.833 352.6 309.712C352.338 309.586 352.07 309.523 351.795 309.523C351.412 309.523 351.064 309.628 350.752 309.838C350.444 310.043 350.199 310.316 350.017 310.657C349.839 310.993 349.751 311.361 349.751 311.763C349.751 312.159 349.842 312.528 350.024 312.869C350.206 313.205 350.451 313.475 350.759 313.681C351.071 313.886 351.417 313.989 351.795 313.989C352.084 313.989 352.359 313.923 352.621 313.793C352.882 313.662 353.104 313.489 353.286 313.275ZM361.974 310.874V315.263H360.518V311.231C360.518 310.918 360.441 310.633 360.287 310.377C360.137 310.12 359.934 309.917 359.678 309.768C359.426 309.614 359.141 309.537 358.824 309.537C358.516 309.537 358.233 309.614 357.977 309.768C357.72 309.917 357.515 310.12 357.361 310.377C357.207 310.633 357.13 310.918 357.13 311.231V315.263H355.674V304.763H357.13V309.005C357.372 308.715 357.671 308.487 358.026 308.319C358.38 308.151 358.763 308.067 359.174 308.067C359.692 308.067 360.163 308.193 360.588 308.445C361.012 308.697 361.348 309.035 361.596 309.46C361.848 309.884 361.974 310.356 361.974 310.874ZM366.314 315.445C365.67 315.445 365.082 315.279 364.55 314.948C364.023 314.616 363.601 314.173 363.283 313.618C362.971 313.058 362.814 312.439 362.814 311.763C362.814 311.249 362.905 310.771 363.087 310.328C363.269 309.88 363.519 309.488 363.836 309.152C364.158 308.811 364.532 308.545 364.956 308.354C365.381 308.162 365.834 308.067 366.314 308.067C366.851 308.067 367.343 308.179 367.791 308.403C368.239 308.622 368.622 308.928 368.939 309.32C369.257 309.707 369.49 310.155 369.639 310.664C369.789 311.168 369.833 311.704 369.772 312.274H364.375C364.436 312.596 364.553 312.887 364.725 313.149C364.903 313.405 365.127 313.608 365.397 313.758C365.673 313.907 365.978 313.984 366.314 313.989C366.669 313.989 366.991 313.9 367.28 313.723C367.574 313.545 367.815 313.3 368.001 312.988L369.478 313.331C369.198 313.951 368.776 314.46 368.211 314.857C367.647 315.249 367.014 315.445 366.314 315.445ZM364.326 311.161H368.302C368.256 310.825 368.137 310.521 367.945 310.251C367.759 309.975 367.523 309.758 367.238 309.6C366.958 309.436 366.65 309.355 366.314 309.355C365.983 309.355 365.675 309.434 365.39 309.593C365.11 309.751 364.877 309.968 364.69 310.244C364.508 310.514 364.387 310.82 364.326 311.161ZM375.489 313.275L376.791 313.982C376.474 314.425 376.07 314.78 375.58 315.046C375.095 315.312 374.567 315.445 373.998 315.445C373.354 315.445 372.766 315.279 372.234 314.948C371.707 314.616 371.284 314.173 370.967 313.618C370.654 313.058 370.498 312.439 370.498 311.763C370.498 311.249 370.589 310.771 370.771 310.328C370.953 309.88 371.203 309.488 371.52 309.152C371.842 308.811 372.215 308.545 372.64 308.354C373.065 308.162 373.517 308.067 373.998 308.067C374.567 308.067 375.095 308.2 375.58 308.466C376.07 308.732 376.474 309.089 376.791 309.537L375.489 310.244C375.293 310.01 375.064 309.833 374.803 309.712C374.542 309.586 374.273 309.523 373.998 309.523C373.615 309.523 373.268 309.628 372.955 309.838C372.647 310.043 372.402 310.316 372.22 310.657C372.043 310.993 371.954 311.361 371.954 311.763C371.954 312.159 372.045 312.528 372.227 312.869C372.409 313.205 372.654 313.475 372.962 313.681C373.275 313.886 373.62 313.989 373.998 313.989C374.287 313.989 374.563 313.923 374.824 313.793C375.085 313.662 375.307 313.489 375.489 313.275ZM383.862 315.263H382.182L380.46 312.295L379.333 313.639V315.263H377.877V304.763H379.333V311.378L381.937 308.263H383.841L381.454 311.112L383.862 315.263ZM387.656 315.445C387.012 315.445 386.424 315.279 385.892 314.948C385.365 314.616 384.942 314.173 384.625 313.618C384.312 313.058 384.156 312.439 384.156 311.763C384.156 311.249 384.247 310.771 384.429 310.328C384.611 309.88 384.861 309.488 385.178 309.152C385.5 308.811 385.873 308.545 386.298 308.354C386.723 308.162 387.175 308.067 387.656 308.067C388.193 308.067 388.685 308.179 389.133 308.403C389.581 308.622 389.964 308.928 390.281 309.32C390.598 309.707 390.832 310.155 390.981 310.664C391.13 311.168 391.175 311.704 391.114 312.274H385.717C385.778 312.596 385.894 312.887 386.067 313.149C386.244 313.405 386.468 313.608 386.739 313.758C387.014 313.907 387.32 313.984 387.656 313.989C388.011 313.989 388.333 313.9 388.622 313.723C388.916 313.545 389.156 313.3 389.343 312.988L390.82 313.331C390.54 313.951 390.118 314.46 389.553 314.857C388.988 315.249 388.356 315.445 387.656 315.445ZM385.668 311.161H389.644C389.597 310.825 389.478 310.521 389.287 310.251C389.1 309.975 388.865 309.758 388.58 309.6C388.3 309.436 387.992 309.355 387.656 309.355C387.325 309.355 387.017 309.434 386.732 309.593C386.452 309.751 386.219 309.968 386.032 310.244C385.85 310.514 385.729 310.82 385.668 311.161ZM397.713 304.763H399.169V315.263H397.713V314.234C397.484 314.598 397.185 314.892 396.817 315.116C396.448 315.335 396.016 315.445 395.522 315.445C395.013 315.445 394.537 315.349 394.094 315.158C393.65 314.966 393.258 314.703 392.918 314.367C392.582 314.026 392.318 313.634 392.127 313.191C391.935 312.747 391.84 312.271 391.84 311.763C391.84 311.254 391.935 310.778 392.127 310.335C392.318 309.887 392.582 309.495 392.918 309.159C393.258 308.818 393.65 308.552 394.094 308.361C394.537 308.169 395.013 308.074 395.522 308.074C396.016 308.074 396.448 308.186 396.817 308.41C397.185 308.629 397.484 308.918 397.713 309.278V304.763ZM395.536 314.038C395.946 314.038 396.306 313.937 396.614 313.737C396.922 313.531 397.16 313.256 397.328 312.911C397.5 312.565 397.587 312.183 397.587 311.763C397.587 311.338 397.5 310.953 397.328 310.608C397.155 310.262 396.915 309.989 396.607 309.789C396.303 309.583 395.946 309.481 395.536 309.481C395.13 309.481 394.759 309.583 394.423 309.789C394.091 309.994 393.825 310.269 393.625 310.615C393.429 310.96 393.331 311.343 393.331 311.763C393.331 312.187 393.431 312.572 393.632 312.918C393.837 313.258 394.105 313.531 394.437 313.737C394.773 313.937 395.139 314.038 395.536 314.038Z" fill="#6C6C6C"/>
<path d="M145.755 301.763L149.068 308.35L153.116 314.513L145.755 314.088L138.394 314.513L142.443 308.35L145.755 301.763Z" fill="#FBBC04"/>
<defs>
<filter id="filter0_d_2941_9771" x="0" y="0.947266" width="534.985" height="384.316" filterUnits="userSpaceOnUse" color-interpolation-filters="sRGB">
<feFlood flood-opacity="0" result="BackgroundImageFix"/>
<feColorMatrix in="SourceAlpha" type="matrix" values="0 0 0 0 0 0 0 0 0 0 0 0 0 0 0 0 0 0 127 0" result="hardAlpha"/>
<feOffset/>
<feGaussianBlur stdDeviation="25"/>
<feComposite in2="hardAlpha" operator="out"/>
<feColorMatrix type="matrix" values="0 0 0 0 0.417969 0 0 0 0 0.656953 0 0 0 0 0.9375 0 0 0 0.5 0"/>
<feBlend mode="normal" in2="BackgroundImageFix" result="effect1_dropShadow_2941_9771"/>
<feBlend mode="normal" in="SourceGraphic" in2="effect1_dropShadow_2941_9771" result="shape"/>
</filter>
<filter id="filter1_d_2941_9771" x="135.766" y="113.127" width="263.465" height="161.839" filterUnits="userSpaceOnUse" color-interpolation-filters="sRGB">
<feFlood flood-opacity="0" result="BackgroundImageFix"/>
<feColorMatrix in="SourceAlpha" type="matrix" values="0 0 0 0 0 0 0 0 0 0 0 0 0 0 0 0 0 0 127 0" result="hardAlpha"/>
<feOffset dy="-20"/>
<feGaussianBlur stdDeviation="15"/>
<feComposite in2="hardAlpha" operator="out"/>
<feColorMatrix type="matrix" values="0 0 0 0 0 0 0 0 0 0 0 0 0 0 0 0 0 0 0.1 0"/>
<feBlend mode="normal" in2="BackgroundImageFix" result="effect1_dropShadow_2941_9771"/>
<feBlend mode="normal" in="SourceGraphic" in2="effect1_dropShadow_2941_9771" result="shape"/>
</filter>
</defs>
</svg>
